%TF.GenerationSoftware,KiCad,Pcbnew,9.0.7*%
%TF.CreationDate,2026-01-29T20:19:20-08:00*%
%TF.ProjectId,ee201_final_project_sensor_array,65653230-315f-4666-996e-616c5f70726f,0*%
%TF.SameCoordinates,Original*%
%TF.FileFunction,Copper,L1,Top*%
%TF.FilePolarity,Positive*%
%FSLAX46Y46*%
G04 Gerber Fmt 4.6, Leading zero omitted, Abs format (unit mm)*
G04 Created by KiCad (PCBNEW 9.0.7) date 2026-01-29 20:19:20*
%MOMM*%
%LPD*%
G01*
G04 APERTURE LIST*
%TA.AperFunction,ComponentPad*%
%ADD10C,6.400000*%
%TD*%
%TA.AperFunction,ComponentPad*%
%ADD11C,1.800000*%
%TD*%
%TA.AperFunction,ComponentPad*%
%ADD12R,1.800000X1.800000*%
%TD*%
%TA.AperFunction,ComponentPad*%
%ADD13C,1.600000*%
%TD*%
%TA.AperFunction,ComponentPad*%
%ADD14R,1.700000X1.700000*%
%TD*%
%TA.AperFunction,ComponentPad*%
%ADD15C,1.700000*%
%TD*%
%TA.AperFunction,Conductor*%
%ADD16C,0.250000*%
%TD*%
%TA.AperFunction,Conductor*%
%ADD17C,0.500000*%
%TD*%
G04 APERTURE END LIST*
D10*
%TO.P,H2,1,1*%
%TO.N,GND*%
X152235000Y-36500000D03*
%TD*%
%TO.P,H1,1,1*%
%TO.N,GND*%
X42235000Y-36500000D03*
%TD*%
%TO.P,H4,1,1*%
%TO.N,GND*%
X42235000Y-86500000D03*
%TD*%
%TO.P,H3,1,1*%
%TO.N,GND*%
X152235000Y-86500000D03*
%TD*%
D11*
%TO.P,D1,2,A*%
%TO.N,Net-(D1-A)*%
X139235000Y-77540000D03*
D12*
%TO.P,D1,1,K*%
%TO.N,GND*%
X139235000Y-75000000D03*
%TD*%
D11*
%TO.P,D2,2,A*%
%TO.N,Net-(D1-A)*%
X123235000Y-77540000D03*
D12*
%TO.P,D2,1,K*%
%TO.N,GND*%
X123235000Y-75000000D03*
%TD*%
%TO.P,D3,1,K*%
%TO.N,GND*%
X107235000Y-75000000D03*
D11*
%TO.P,D3,2,A*%
%TO.N,Net-(D1-A)*%
X107235000Y-77540000D03*
%TD*%
%TO.P,D4,2,A*%
%TO.N,Net-(D1-A)*%
X91735000Y-77540000D03*
D12*
%TO.P,D4,1,K*%
%TO.N,GND*%
X91735000Y-75000000D03*
%TD*%
%TO.P,D5,1,K*%
%TO.N,GND*%
X75735000Y-75000000D03*
D11*
%TO.P,D5,2,A*%
%TO.N,Net-(D1-A)*%
X75735000Y-77540000D03*
%TD*%
D12*
%TO.P,D6,1,K*%
%TO.N,GND*%
X59735000Y-75000000D03*
D11*
%TO.P,D6,2,A*%
%TO.N,Net-(D1-A)*%
X59735000Y-77540000D03*
%TD*%
D13*
%TO.P,R15,2*%
%TO.N,Net-(D1-A)*%
X64155000Y-45000000D03*
%TO.P,R15,1*%
%TO.N,VCC*%
X74315000Y-45000000D03*
%TD*%
%TO.P,R14,1*%
%TO.N,GND*%
X146735000Y-78500000D03*
%TO.P,R14,2*%
%TO.N,/A14*%
X146735000Y-75500000D03*
%TD*%
%TO.P,R13,1*%
%TO.N,GND*%
X130735000Y-78500000D03*
%TO.P,R13,2*%
%TO.N,/A13*%
X130735000Y-75500000D03*
%TD*%
%TO.P,R12,1*%
%TO.N,GND*%
X114735000Y-78500000D03*
%TO.P,R12,2*%
%TO.N,/A12*%
X114735000Y-75500000D03*
%TD*%
%TO.P,R11,2*%
%TO.N,/A11*%
X99235000Y-75000000D03*
%TO.P,R11,1*%
%TO.N,GND*%
X99235000Y-78000000D03*
%TD*%
%TO.P,R10,1*%
%TO.N,GND*%
X83235000Y-78000000D03*
%TO.P,R10,2*%
%TO.N,/A10*%
X83235000Y-75000000D03*
%TD*%
%TO.P,R9,1*%
%TO.N,GND*%
X67235000Y-78000000D03*
%TO.P,R9,2*%
%TO.N,/A9*%
X67235000Y-75000000D03*
%TD*%
%TO.P,R8,1*%
%TO.N,GND*%
X51235000Y-78000000D03*
%TO.P,R8,2*%
%TO.N,/A8*%
X51235000Y-75000000D03*
%TD*%
%TO.P,R7,1*%
%TO.N,/A14*%
X146735000Y-67580000D03*
%TO.P,R7,2*%
%TO.N,VCC*%
X146735000Y-57420000D03*
%TD*%
%TO.P,R6,1*%
%TO.N,/A13*%
X130735000Y-67580000D03*
%TO.P,R6,2*%
%TO.N,VCC*%
X130735000Y-57420000D03*
%TD*%
%TO.P,R5,1*%
%TO.N,/A12*%
X114735000Y-67580000D03*
%TO.P,R5,2*%
%TO.N,VCC*%
X114735000Y-57420000D03*
%TD*%
%TO.P,R4,1*%
%TO.N,/A11*%
X99235000Y-67580000D03*
%TO.P,R4,2*%
%TO.N,VCC*%
X99235000Y-57420000D03*
%TD*%
%TO.P,R3,1*%
%TO.N,/A10*%
X83235000Y-67580000D03*
%TO.P,R3,2*%
%TO.N,VCC*%
X83235000Y-57420000D03*
%TD*%
%TO.P,R2,1*%
%TO.N,/A9*%
X67235000Y-67580000D03*
%TO.P,R2,2*%
%TO.N,VCC*%
X67235000Y-57420000D03*
%TD*%
%TO.P,R1,1*%
%TO.N,/A8*%
X51235000Y-67580000D03*
%TO.P,R1,2*%
%TO.N,VCC*%
X51235000Y-57420000D03*
%TD*%
D14*
%TO.P,J2,1,Pin_1*%
%TO.N,VCC*%
X88960000Y-45000000D03*
D15*
%TO.P,J2,2,Pin_2*%
%TO.N,GND*%
X91500000Y-45000000D03*
%TD*%
D14*
%TO.P,J1,1,Pin_1*%
%TO.N,/A8*%
X108035000Y-45000000D03*
D15*
%TO.P,J1,2,Pin_2*%
%TO.N,/A9*%
X110575000Y-45000000D03*
%TO.P,J1,3,Pin_3*%
%TO.N,/A10*%
X113115000Y-45000000D03*
%TO.P,J1,4,Pin_4*%
%TO.N,/A11*%
X115655000Y-45000000D03*
%TO.P,J1,5,Pin_5*%
%TO.N,/A12*%
X118195000Y-45000000D03*
%TO.P,J1,6,Pin_6*%
%TO.N,/A13*%
X120735000Y-45000000D03*
%TO.P,J1,7,Pin_7*%
%TO.N,/A14*%
X123275000Y-45000000D03*
%TD*%
D16*
%TO.N,GND*%
X83000000Y-36500000D02*
X91500000Y-45000000D01*
X42235000Y-36500000D02*
X83000000Y-36500000D01*
X146735000Y-81000000D02*
X146735000Y-78500000D01*
X152235000Y-86500000D02*
X146735000Y-81000000D01*
X152235000Y-36500000D02*
X152235000Y-86500000D01*
X42235000Y-36500000D02*
X42235000Y-86500000D01*
D17*
%TO.N,Net-(D1-A)*%
X47235000Y-84000000D02*
X59735000Y-84000000D01*
X47235000Y-45000000D02*
X47235000Y-84000000D01*
X64155000Y-45000000D02*
X47235000Y-45000000D01*
%TO.N,/A10*%
X105115000Y-53000000D02*
X113115000Y-45000000D01*
X98735000Y-53000000D02*
X105115000Y-53000000D01*
X84155000Y-67580000D02*
X98735000Y-53000000D01*
X83235000Y-67580000D02*
X84155000Y-67580000D01*
%TO.N,/A9*%
X103575000Y-52000000D02*
X110575000Y-45000000D01*
X67235000Y-67580000D02*
X82815000Y-52000000D01*
X82815000Y-52000000D02*
X103575000Y-52000000D01*
%TO.N,/A8*%
X102035000Y-51000000D02*
X108035000Y-45000000D01*
X67815000Y-51000000D02*
X102035000Y-51000000D01*
X51235000Y-67580000D02*
X67815000Y-51000000D01*
%TO.N,/A13*%
X120735000Y-45000000D02*
X120735000Y-57580000D01*
X120735000Y-57580000D02*
X130735000Y-67580000D01*
%TO.N,/A12*%
X114735000Y-67580000D02*
X119235000Y-63080000D01*
%TO.N,/A11*%
X115655000Y-51160000D02*
X115655000Y-45000000D01*
X99235000Y-67580000D02*
X115655000Y-51160000D01*
%TO.N,/A8*%
X51235000Y-67580000D02*
X51655000Y-67580000D01*
%TO.N,Net-(D1-A)*%
X75735000Y-84000000D02*
X91735000Y-84000000D01*
X75735000Y-77540000D02*
X75735000Y-84000000D01*
X91735000Y-77540000D02*
X91735000Y-84000000D01*
X91735000Y-84000000D02*
X107235000Y-84000000D01*
X107235000Y-77540000D02*
X107235000Y-84000000D01*
X107235000Y-84000000D02*
X123235000Y-84000000D01*
X123235000Y-77540000D02*
X123235000Y-84000000D01*
X123235000Y-84000000D02*
X139235000Y-84000000D01*
X59735000Y-84000000D02*
X75735000Y-84000000D01*
X139235000Y-84000000D02*
X139235000Y-77540000D01*
%TO.N,/A13*%
X130735000Y-67580000D02*
X130735000Y-75500000D01*
%TO.N,/A12*%
X114735000Y-67580000D02*
X114735000Y-75500000D01*
%TO.N,/A11*%
X99235000Y-67580000D02*
X99235000Y-75000000D01*
%TO.N,/A10*%
X83235000Y-67580000D02*
X83235000Y-75000000D01*
%TO.N,/A9*%
X67235000Y-67580000D02*
X67235000Y-75000000D01*
%TO.N,/A8*%
X51235000Y-67580000D02*
X51235000Y-75000000D01*
%TO.N,/A14*%
X146735000Y-67580000D02*
X146735000Y-75500000D01*
%TO.N,/A12*%
X119235000Y-63080000D02*
X119235000Y-46040000D01*
X119235000Y-46040000D02*
X118195000Y-45000000D01*
%TO.N,/A14*%
X145855000Y-67580000D02*
X146735000Y-67580000D01*
X123275000Y-45000000D02*
X145855000Y-67580000D01*
%TO.N,Net-(D1-A)*%
X59735000Y-84000000D02*
X59735000Y-77540000D01*
%TD*%
M02*
