%TF.GenerationSoftware,KiCad,Pcbnew,9.0.7*%
%TF.CreationDate,2026-01-29T20:19:20-08:00*%
%TF.ProjectId,ee201_final_project_sensor_array,65653230-315f-4666-996e-616c5f70726f,0*%
%TF.SameCoordinates,Original*%
%TF.FileFunction,Soldermask,Top*%
%TF.FilePolarity,Negative*%
%FSLAX46Y46*%
G04 Gerber Fmt 4.6, Leading zero omitted, Abs format (unit mm)*
G04 Created by KiCad (PCBNEW 9.0.7) date 2026-01-29 20:19:20*
%MOMM*%
%LPD*%
G01*
G04 APERTURE LIST*
%ADD10C,6.400000*%
%ADD11C,1.800000*%
%ADD12R,1.800000X1.800000*%
%ADD13C,1.600000*%
%ADD14R,1.700000X1.700000*%
%ADD15C,1.700000*%
G04 APERTURE END LIST*
D10*
%TO.C,H2*%
X152235000Y-36500000D03*
%TD*%
%TO.C,H1*%
X42235000Y-36500000D03*
%TD*%
%TO.C,H4*%
X42235000Y-86500000D03*
%TD*%
%TO.C,H3*%
X152235000Y-86500000D03*
%TD*%
D11*
%TO.C,D1*%
X139235000Y-77540000D03*
D12*
X139235000Y-75000000D03*
%TD*%
D11*
%TO.C,D2*%
X123235000Y-77540000D03*
D12*
X123235000Y-75000000D03*
%TD*%
%TO.C,D3*%
X107235000Y-75000000D03*
D11*
X107235000Y-77540000D03*
%TD*%
%TO.C,D4*%
X91735000Y-77540000D03*
D12*
X91735000Y-75000000D03*
%TD*%
%TO.C,D5*%
X75735000Y-75000000D03*
D11*
X75735000Y-77540000D03*
%TD*%
D12*
%TO.C,D6*%
X59735000Y-75000000D03*
D11*
X59735000Y-77540000D03*
%TD*%
D13*
%TO.C,R15*%
X64155000Y-45000000D03*
X74315000Y-45000000D03*
%TD*%
%TO.C,R14*%
X146735000Y-78500000D03*
X146735000Y-75500000D03*
%TD*%
%TO.C,R13*%
X130735000Y-78500000D03*
X130735000Y-75500000D03*
%TD*%
%TO.C,R12*%
X114735000Y-78500000D03*
X114735000Y-75500000D03*
%TD*%
%TO.C,R11*%
X99235000Y-75000000D03*
X99235000Y-78000000D03*
%TD*%
%TO.C,R10*%
X83235000Y-78000000D03*
X83235000Y-75000000D03*
%TD*%
%TO.C,R9*%
X67235000Y-78000000D03*
X67235000Y-75000000D03*
%TD*%
%TO.C,R8*%
X51235000Y-78000000D03*
X51235000Y-75000000D03*
%TD*%
%TO.C,R7*%
X146735000Y-67580000D03*
X146735000Y-57420000D03*
%TD*%
%TO.C,R6*%
X130735000Y-67580000D03*
X130735000Y-57420000D03*
%TD*%
%TO.C,R5*%
X114735000Y-67580000D03*
X114735000Y-57420000D03*
%TD*%
%TO.C,R4*%
X99235000Y-67580000D03*
X99235000Y-57420000D03*
%TD*%
%TO.C,R3*%
X83235000Y-67580000D03*
X83235000Y-57420000D03*
%TD*%
%TO.C,R2*%
X67235000Y-67580000D03*
X67235000Y-57420000D03*
%TD*%
%TO.C,R1*%
X51235000Y-67580000D03*
X51235000Y-57420000D03*
%TD*%
D14*
%TO.C,J2*%
X88960000Y-45000000D03*
D15*
X91500000Y-45000000D03*
%TD*%
D14*
%TO.C,J1*%
X108035000Y-45000000D03*
D15*
X110575000Y-45000000D03*
X113115000Y-45000000D03*
X115655000Y-45000000D03*
X118195000Y-45000000D03*
X120735000Y-45000000D03*
X123275000Y-45000000D03*
%TD*%
M02*
