%TF.GenerationSoftware,KiCad,Pcbnew,9.0.7*%
%TF.CreationDate,2026-01-29T20:19:20-08:00*%
%TF.ProjectId,ee201_final_project_sensor_array,65653230-315f-4666-996e-616c5f70726f,0*%
%TF.SameCoordinates,Original*%
%TF.FileFunction,Legend,Bot*%
%TF.FilePolarity,Positive*%
%FSLAX46Y46*%
G04 Gerber Fmt 4.6, Leading zero omitted, Abs format (unit mm)*
G04 Created by KiCad (PCBNEW 9.0.7) date 2026-01-29 20:19:20*
%MOMM*%
%LPD*%
G01*
G04 APERTURE LIST*
%ADD10C,0.150000*%
G04 APERTURE END LIST*
D10*
X92374411Y-41917438D02*
X92469649Y-41869819D01*
X92469649Y-41869819D02*
X92612506Y-41869819D01*
X92612506Y-41869819D02*
X92755363Y-41917438D01*
X92755363Y-41917438D02*
X92850601Y-42012676D01*
X92850601Y-42012676D02*
X92898220Y-42107914D01*
X92898220Y-42107914D02*
X92945839Y-42298390D01*
X92945839Y-42298390D02*
X92945839Y-42441247D01*
X92945839Y-42441247D02*
X92898220Y-42631723D01*
X92898220Y-42631723D02*
X92850601Y-42726961D01*
X92850601Y-42726961D02*
X92755363Y-42822200D01*
X92755363Y-42822200D02*
X92612506Y-42869819D01*
X92612506Y-42869819D02*
X92517268Y-42869819D01*
X92517268Y-42869819D02*
X92374411Y-42822200D01*
X92374411Y-42822200D02*
X92326792Y-42774580D01*
X92326792Y-42774580D02*
X92326792Y-42441247D01*
X92326792Y-42441247D02*
X92517268Y-42441247D01*
X91898220Y-42869819D02*
X91898220Y-41869819D01*
X91898220Y-41869819D02*
X91326792Y-42869819D01*
X91326792Y-42869819D02*
X91326792Y-41869819D01*
X90850601Y-42869819D02*
X90850601Y-41869819D01*
X90850601Y-41869819D02*
X90612506Y-41869819D01*
X90612506Y-41869819D02*
X90469649Y-41917438D01*
X90469649Y-41917438D02*
X90374411Y-42012676D01*
X90374411Y-42012676D02*
X90326792Y-42107914D01*
X90326792Y-42107914D02*
X90279173Y-42298390D01*
X90279173Y-42298390D02*
X90279173Y-42441247D01*
X90279173Y-42441247D02*
X90326792Y-42631723D01*
X90326792Y-42631723D02*
X90374411Y-42726961D01*
X90374411Y-42726961D02*
X90469649Y-42822200D01*
X90469649Y-42822200D02*
X90612506Y-42869819D01*
X90612506Y-42869819D02*
X90850601Y-42869819D01*
X89541077Y-41869819D02*
X89207744Y-42869819D01*
X89207744Y-42869819D02*
X88874411Y-41869819D01*
X87969649Y-42774580D02*
X88017268Y-42822200D01*
X88017268Y-42822200D02*
X88160125Y-42869819D01*
X88160125Y-42869819D02*
X88255363Y-42869819D01*
X88255363Y-42869819D02*
X88398220Y-42822200D01*
X88398220Y-42822200D02*
X88493458Y-42726961D01*
X88493458Y-42726961D02*
X88541077Y-42631723D01*
X88541077Y-42631723D02*
X88588696Y-42441247D01*
X88588696Y-42441247D02*
X88588696Y-42298390D01*
X88588696Y-42298390D02*
X88541077Y-42107914D01*
X88541077Y-42107914D02*
X88493458Y-42012676D01*
X88493458Y-42012676D02*
X88398220Y-41917438D01*
X88398220Y-41917438D02*
X88255363Y-41869819D01*
X88255363Y-41869819D02*
X88160125Y-41869819D01*
X88160125Y-41869819D02*
X88017268Y-41917438D01*
X88017268Y-41917438D02*
X87969649Y-41965057D01*
X86969649Y-42774580D02*
X87017268Y-42822200D01*
X87017268Y-42822200D02*
X87160125Y-42869819D01*
X87160125Y-42869819D02*
X87255363Y-42869819D01*
X87255363Y-42869819D02*
X87398220Y-42822200D01*
X87398220Y-42822200D02*
X87493458Y-42726961D01*
X87493458Y-42726961D02*
X87541077Y-42631723D01*
X87541077Y-42631723D02*
X87588696Y-42441247D01*
X87588696Y-42441247D02*
X87588696Y-42298390D01*
X87588696Y-42298390D02*
X87541077Y-42107914D01*
X87541077Y-42107914D02*
X87493458Y-42012676D01*
X87493458Y-42012676D02*
X87398220Y-41917438D01*
X87398220Y-41917438D02*
X87255363Y-41869819D01*
X87255363Y-41869819D02*
X87160125Y-41869819D01*
X87160125Y-41869819D02*
X87017268Y-41917438D01*
X87017268Y-41917438D02*
X86969649Y-41965057D01*
M02*
