%TF.GenerationSoftware,KiCad,Pcbnew,9.0.7*%
%TF.CreationDate,2026-01-29T20:19:20-08:00*%
%TF.ProjectId,ee201_final_project_sensor_array,65653230-315f-4666-996e-616c5f70726f,0*%
%TF.SameCoordinates,Original*%
%TF.FileFunction,Copper,L2,Bot*%
%TF.FilePolarity,Positive*%
%FSLAX46Y46*%
G04 Gerber Fmt 4.6, Leading zero omitted, Abs format (unit mm)*
G04 Created by KiCad (PCBNEW 9.0.7) date 2026-01-29 20:19:20*
%MOMM*%
%LPD*%
G01*
G04 APERTURE LIST*
%TA.AperFunction,ComponentPad*%
%ADD10C,6.400000*%
%TD*%
%TA.AperFunction,ComponentPad*%
%ADD11C,1.800000*%
%TD*%
%TA.AperFunction,ComponentPad*%
%ADD12R,1.800000X1.800000*%
%TD*%
%TA.AperFunction,ComponentPad*%
%ADD13C,1.600000*%
%TD*%
%TA.AperFunction,ComponentPad*%
%ADD14R,1.700000X1.700000*%
%TD*%
%TA.AperFunction,ComponentPad*%
%ADD15C,1.700000*%
%TD*%
%TA.AperFunction,Conductor*%
%ADD16C,0.250000*%
%TD*%
G04 APERTURE END LIST*
D10*
%TO.P,H2,1,1*%
%TO.N,GND*%
X152235000Y-36500000D03*
%TD*%
%TO.P,H1,1,1*%
%TO.N,GND*%
X42235000Y-36500000D03*
%TD*%
%TO.P,H4,1,1*%
%TO.N,GND*%
X42235000Y-86500000D03*
%TD*%
%TO.P,H3,1,1*%
%TO.N,GND*%
X152235000Y-86500000D03*
%TD*%
D11*
%TO.P,D1,2,A*%
%TO.N,Net-(D1-A)*%
X139235000Y-77540000D03*
D12*
%TO.P,D1,1,K*%
%TO.N,GND*%
X139235000Y-75000000D03*
%TD*%
D11*
%TO.P,D2,2,A*%
%TO.N,Net-(D1-A)*%
X123235000Y-77540000D03*
D12*
%TO.P,D2,1,K*%
%TO.N,GND*%
X123235000Y-75000000D03*
%TD*%
%TO.P,D3,1,K*%
%TO.N,GND*%
X107235000Y-75000000D03*
D11*
%TO.P,D3,2,A*%
%TO.N,Net-(D1-A)*%
X107235000Y-77540000D03*
%TD*%
%TO.P,D4,2,A*%
%TO.N,Net-(D1-A)*%
X91735000Y-77540000D03*
D12*
%TO.P,D4,1,K*%
%TO.N,GND*%
X91735000Y-75000000D03*
%TD*%
%TO.P,D5,1,K*%
%TO.N,GND*%
X75735000Y-75000000D03*
D11*
%TO.P,D5,2,A*%
%TO.N,Net-(D1-A)*%
X75735000Y-77540000D03*
%TD*%
D12*
%TO.P,D6,1,K*%
%TO.N,GND*%
X59735000Y-75000000D03*
D11*
%TO.P,D6,2,A*%
%TO.N,Net-(D1-A)*%
X59735000Y-77540000D03*
%TD*%
D13*
%TO.P,R15,2*%
%TO.N,Net-(D1-A)*%
X64155000Y-45000000D03*
%TO.P,R15,1*%
%TO.N,VCC*%
X74315000Y-45000000D03*
%TD*%
%TO.P,R14,1*%
%TO.N,GND*%
X146735000Y-78500000D03*
%TO.P,R14,2*%
%TO.N,/A14*%
X146735000Y-75500000D03*
%TD*%
%TO.P,R13,1*%
%TO.N,GND*%
X130735000Y-78500000D03*
%TO.P,R13,2*%
%TO.N,/A13*%
X130735000Y-75500000D03*
%TD*%
%TO.P,R12,1*%
%TO.N,GND*%
X114735000Y-78500000D03*
%TO.P,R12,2*%
%TO.N,/A12*%
X114735000Y-75500000D03*
%TD*%
%TO.P,R11,2*%
%TO.N,/A11*%
X99235000Y-75000000D03*
%TO.P,R11,1*%
%TO.N,GND*%
X99235000Y-78000000D03*
%TD*%
%TO.P,R10,1*%
%TO.N,GND*%
X83235000Y-78000000D03*
%TO.P,R10,2*%
%TO.N,/A10*%
X83235000Y-75000000D03*
%TD*%
%TO.P,R9,1*%
%TO.N,GND*%
X67235000Y-78000000D03*
%TO.P,R9,2*%
%TO.N,/A9*%
X67235000Y-75000000D03*
%TD*%
%TO.P,R8,1*%
%TO.N,GND*%
X51235000Y-78000000D03*
%TO.P,R8,2*%
%TO.N,/A8*%
X51235000Y-75000000D03*
%TD*%
%TO.P,R7,1*%
%TO.N,/A14*%
X146735000Y-67580000D03*
%TO.P,R7,2*%
%TO.N,VCC*%
X146735000Y-57420000D03*
%TD*%
%TO.P,R6,1*%
%TO.N,/A13*%
X130735000Y-67580000D03*
%TO.P,R6,2*%
%TO.N,VCC*%
X130735000Y-57420000D03*
%TD*%
%TO.P,R5,1*%
%TO.N,/A12*%
X114735000Y-67580000D03*
%TO.P,R5,2*%
%TO.N,VCC*%
X114735000Y-57420000D03*
%TD*%
%TO.P,R4,1*%
%TO.N,/A11*%
X99235000Y-67580000D03*
%TO.P,R4,2*%
%TO.N,VCC*%
X99235000Y-57420000D03*
%TD*%
%TO.P,R3,1*%
%TO.N,/A10*%
X83235000Y-67580000D03*
%TO.P,R3,2*%
%TO.N,VCC*%
X83235000Y-57420000D03*
%TD*%
%TO.P,R2,1*%
%TO.N,/A9*%
X67235000Y-67580000D03*
%TO.P,R2,2*%
%TO.N,VCC*%
X67235000Y-57420000D03*
%TD*%
%TO.P,R1,1*%
%TO.N,/A8*%
X51235000Y-67580000D03*
%TO.P,R1,2*%
%TO.N,VCC*%
X51235000Y-57420000D03*
%TD*%
D14*
%TO.P,J2,1,Pin_1*%
%TO.N,VCC*%
X88960000Y-45000000D03*
D15*
%TO.P,J2,2,Pin_2*%
%TO.N,GND*%
X91500000Y-45000000D03*
%TD*%
D14*
%TO.P,J1,1,Pin_1*%
%TO.N,/A8*%
X108035000Y-45000000D03*
D15*
%TO.P,J1,2,Pin_2*%
%TO.N,/A9*%
X110575000Y-45000000D03*
%TO.P,J1,3,Pin_3*%
%TO.N,/A10*%
X113115000Y-45000000D03*
%TO.P,J1,4,Pin_4*%
%TO.N,/A11*%
X115655000Y-45000000D03*
%TO.P,J1,5,Pin_5*%
%TO.N,/A12*%
X118195000Y-45000000D03*
%TO.P,J1,6,Pin_6*%
%TO.N,/A13*%
X120735000Y-45000000D03*
%TO.P,J1,7,Pin_7*%
%TO.N,/A14*%
X123275000Y-45000000D03*
%TD*%
D16*
%TO.N,GND*%
X146735000Y-79000000D02*
X146735000Y-78500000D01*
%TD*%
%TA.AperFunction,Conductor*%
%TO.N,VCC*%
G36*
X148835113Y-38019685D02*
G01*
X148880868Y-38072489D01*
X148882617Y-38076506D01*
X148885753Y-38084076D01*
X148885757Y-38084083D01*
X149057140Y-38404720D01*
X149057151Y-38404738D01*
X149259140Y-38707035D01*
X149259150Y-38707049D01*
X149489807Y-38988106D01*
X149746893Y-39245192D01*
X149746898Y-39245196D01*
X149746899Y-39245197D01*
X150027956Y-39475854D01*
X150330268Y-39677853D01*
X150330277Y-39677858D01*
X150330279Y-39677859D01*
X150650916Y-39849243D01*
X150650918Y-39849243D01*
X150650924Y-39849247D01*
X150986836Y-39988386D01*
X151334767Y-40093930D01*
X151334773Y-40093931D01*
X151334776Y-40093932D01*
X151334787Y-40093935D01*
X151691369Y-40164862D01*
X152053206Y-40200500D01*
X152053209Y-40200500D01*
X152111000Y-40200500D01*
X152178039Y-40220185D01*
X152223794Y-40272989D01*
X152235000Y-40324500D01*
X152235000Y-59875401D01*
X152215315Y-59942440D01*
X152162511Y-59988195D01*
X152110404Y-59999400D01*
X48358404Y-59500593D01*
X48291460Y-59480586D01*
X48245959Y-59427563D01*
X48235000Y-59376594D01*
X48235000Y-57317682D01*
X49935000Y-57317682D01*
X49935000Y-57522317D01*
X49967009Y-57724417D01*
X50030244Y-57919031D01*
X50123141Y-58101350D01*
X50123147Y-58101359D01*
X50155523Y-58145921D01*
X50155524Y-58145922D01*
X50835000Y-57466446D01*
X50835000Y-57472661D01*
X50862259Y-57574394D01*
X50914920Y-57665606D01*
X50989394Y-57740080D01*
X51080606Y-57792741D01*
X51182339Y-57820000D01*
X51188553Y-57820000D01*
X50509076Y-58499474D01*
X50553650Y-58531859D01*
X50735968Y-58624755D01*
X50930582Y-58687990D01*
X51132683Y-58720000D01*
X51337317Y-58720000D01*
X51539417Y-58687990D01*
X51734031Y-58624755D01*
X51916349Y-58531859D01*
X51960921Y-58499474D01*
X51281447Y-57820000D01*
X51287661Y-57820000D01*
X51389394Y-57792741D01*
X51480606Y-57740080D01*
X51555080Y-57665606D01*
X51607741Y-57574394D01*
X51635000Y-57472661D01*
X51635000Y-57466447D01*
X52314474Y-58145921D01*
X52346859Y-58101349D01*
X52439755Y-57919031D01*
X52502990Y-57724417D01*
X52535000Y-57522317D01*
X52535000Y-57317682D01*
X65935000Y-57317682D01*
X65935000Y-57522317D01*
X65967009Y-57724417D01*
X66030244Y-57919031D01*
X66123141Y-58101350D01*
X66123147Y-58101359D01*
X66155523Y-58145921D01*
X66155524Y-58145922D01*
X66835000Y-57466446D01*
X66835000Y-57472661D01*
X66862259Y-57574394D01*
X66914920Y-57665606D01*
X66989394Y-57740080D01*
X67080606Y-57792741D01*
X67182339Y-57820000D01*
X67188553Y-57820000D01*
X66509076Y-58499474D01*
X66553650Y-58531859D01*
X66735968Y-58624755D01*
X66930582Y-58687990D01*
X67132683Y-58720000D01*
X67337317Y-58720000D01*
X67539417Y-58687990D01*
X67734031Y-58624755D01*
X67916349Y-58531859D01*
X67960921Y-58499474D01*
X67281447Y-57820000D01*
X67287661Y-57820000D01*
X67389394Y-57792741D01*
X67480606Y-57740080D01*
X67555080Y-57665606D01*
X67607741Y-57574394D01*
X67635000Y-57472661D01*
X67635000Y-57466447D01*
X68314474Y-58145921D01*
X68346859Y-58101349D01*
X68439755Y-57919031D01*
X68502990Y-57724417D01*
X68535000Y-57522317D01*
X68535000Y-57317682D01*
X81935000Y-57317682D01*
X81935000Y-57522317D01*
X81967009Y-57724417D01*
X82030244Y-57919031D01*
X82123141Y-58101350D01*
X82123147Y-58101359D01*
X82155523Y-58145921D01*
X82155524Y-58145922D01*
X82835000Y-57466446D01*
X82835000Y-57472661D01*
X82862259Y-57574394D01*
X82914920Y-57665606D01*
X82989394Y-57740080D01*
X83080606Y-57792741D01*
X83182339Y-57820000D01*
X83188553Y-57820000D01*
X82509076Y-58499474D01*
X82553650Y-58531859D01*
X82735968Y-58624755D01*
X82930582Y-58687990D01*
X83132683Y-58720000D01*
X83337317Y-58720000D01*
X83539417Y-58687990D01*
X83734031Y-58624755D01*
X83916349Y-58531859D01*
X83960921Y-58499474D01*
X83281447Y-57820000D01*
X83287661Y-57820000D01*
X83389394Y-57792741D01*
X83480606Y-57740080D01*
X83555080Y-57665606D01*
X83607741Y-57574394D01*
X83635000Y-57472661D01*
X83635000Y-57466447D01*
X84314474Y-58145921D01*
X84346859Y-58101349D01*
X84439755Y-57919031D01*
X84502990Y-57724417D01*
X84535000Y-57522317D01*
X84535000Y-57317682D01*
X97935000Y-57317682D01*
X97935000Y-57522317D01*
X97967009Y-57724417D01*
X98030244Y-57919031D01*
X98123141Y-58101350D01*
X98123147Y-58101359D01*
X98155523Y-58145921D01*
X98155524Y-58145922D01*
X98835000Y-57466446D01*
X98835000Y-57472661D01*
X98862259Y-57574394D01*
X98914920Y-57665606D01*
X98989394Y-57740080D01*
X99080606Y-57792741D01*
X99182339Y-57820000D01*
X99188553Y-57820000D01*
X98509076Y-58499474D01*
X98553650Y-58531859D01*
X98735968Y-58624755D01*
X98930582Y-58687990D01*
X99132683Y-58720000D01*
X99337317Y-58720000D01*
X99539417Y-58687990D01*
X99734031Y-58624755D01*
X99916349Y-58531859D01*
X99960921Y-58499474D01*
X99281447Y-57820000D01*
X99287661Y-57820000D01*
X99389394Y-57792741D01*
X99480606Y-57740080D01*
X99555080Y-57665606D01*
X99607741Y-57574394D01*
X99635000Y-57472661D01*
X99635000Y-57466448D01*
X100314474Y-58145922D01*
X100314474Y-58145921D01*
X100346859Y-58101349D01*
X100439755Y-57919031D01*
X100502990Y-57724417D01*
X100535000Y-57522317D01*
X100535000Y-57317682D01*
X113435000Y-57317682D01*
X113435000Y-57522317D01*
X113467009Y-57724417D01*
X113530244Y-57919031D01*
X113623141Y-58101350D01*
X113623147Y-58101359D01*
X113655523Y-58145921D01*
X113655524Y-58145922D01*
X114335000Y-57466446D01*
X114335000Y-57472661D01*
X114362259Y-57574394D01*
X114414920Y-57665606D01*
X114489394Y-57740080D01*
X114580606Y-57792741D01*
X114682339Y-57820000D01*
X114688553Y-57820000D01*
X114009076Y-58499474D01*
X114053650Y-58531859D01*
X114235968Y-58624755D01*
X114430582Y-58687990D01*
X114632683Y-58720000D01*
X114837317Y-58720000D01*
X115039417Y-58687990D01*
X115234031Y-58624755D01*
X115416349Y-58531859D01*
X115460921Y-58499474D01*
X114781447Y-57820000D01*
X114787661Y-57820000D01*
X114889394Y-57792741D01*
X114980606Y-57740080D01*
X115055080Y-57665606D01*
X115107741Y-57574394D01*
X115135000Y-57472661D01*
X115135000Y-57466447D01*
X115814474Y-58145921D01*
X115846859Y-58101349D01*
X115939755Y-57919031D01*
X116002990Y-57724417D01*
X116035000Y-57522317D01*
X116035000Y-57317682D01*
X129435000Y-57317682D01*
X129435000Y-57522317D01*
X129467009Y-57724417D01*
X129530244Y-57919031D01*
X129623141Y-58101350D01*
X129623147Y-58101359D01*
X129655523Y-58145921D01*
X129655524Y-58145922D01*
X130335000Y-57466446D01*
X130335000Y-57472661D01*
X130362259Y-57574394D01*
X130414920Y-57665606D01*
X130489394Y-57740080D01*
X130580606Y-57792741D01*
X130682339Y-57820000D01*
X130688553Y-57820000D01*
X130009076Y-58499474D01*
X130053650Y-58531859D01*
X130235968Y-58624755D01*
X130430582Y-58687990D01*
X130632683Y-58720000D01*
X130837317Y-58720000D01*
X131039417Y-58687990D01*
X131234031Y-58624755D01*
X131416349Y-58531859D01*
X131460921Y-58499474D01*
X130781447Y-57820000D01*
X130787661Y-57820000D01*
X130889394Y-57792741D01*
X130980606Y-57740080D01*
X131055080Y-57665606D01*
X131107741Y-57574394D01*
X131135000Y-57472661D01*
X131135000Y-57466447D01*
X131814474Y-58145921D01*
X131846859Y-58101349D01*
X131939755Y-57919031D01*
X132002990Y-57724417D01*
X132035000Y-57522317D01*
X132035000Y-57317682D01*
X145435000Y-57317682D01*
X145435000Y-57522317D01*
X145467009Y-57724417D01*
X145530244Y-57919031D01*
X145623141Y-58101350D01*
X145623147Y-58101359D01*
X145655523Y-58145921D01*
X145655524Y-58145922D01*
X146335000Y-57466446D01*
X146335000Y-57472661D01*
X146362259Y-57574394D01*
X146414920Y-57665606D01*
X146489394Y-57740080D01*
X146580606Y-57792741D01*
X146682339Y-57820000D01*
X146688553Y-57820000D01*
X146009076Y-58499474D01*
X146053650Y-58531859D01*
X146235968Y-58624755D01*
X146430582Y-58687990D01*
X146632683Y-58720000D01*
X146837317Y-58720000D01*
X147039417Y-58687990D01*
X147234031Y-58624755D01*
X147416349Y-58531859D01*
X147460921Y-58499474D01*
X146781447Y-57820000D01*
X146787661Y-57820000D01*
X146889394Y-57792741D01*
X146980606Y-57740080D01*
X147055080Y-57665606D01*
X147107741Y-57574394D01*
X147135000Y-57472661D01*
X147135000Y-57466447D01*
X147814474Y-58145921D01*
X147846859Y-58101349D01*
X147939755Y-57919031D01*
X148002990Y-57724417D01*
X148035000Y-57522317D01*
X148035000Y-57317682D01*
X148002990Y-57115582D01*
X147939755Y-56920968D01*
X147846859Y-56738650D01*
X147814474Y-56694077D01*
X147814474Y-56694076D01*
X147135000Y-57373551D01*
X147135000Y-57367339D01*
X147107741Y-57265606D01*
X147055080Y-57174394D01*
X146980606Y-57099920D01*
X146889394Y-57047259D01*
X146787661Y-57020000D01*
X146781446Y-57020000D01*
X147460922Y-56340524D01*
X147460921Y-56340523D01*
X147416359Y-56308147D01*
X147416350Y-56308141D01*
X147234031Y-56215244D01*
X147039417Y-56152009D01*
X146837317Y-56120000D01*
X146632683Y-56120000D01*
X146430582Y-56152009D01*
X146235968Y-56215244D01*
X146053644Y-56308143D01*
X146009077Y-56340523D01*
X146009077Y-56340524D01*
X146688554Y-57020000D01*
X146682339Y-57020000D01*
X146580606Y-57047259D01*
X146489394Y-57099920D01*
X146414920Y-57174394D01*
X146362259Y-57265606D01*
X146335000Y-57367339D01*
X146335000Y-57373553D01*
X145655524Y-56694077D01*
X145655523Y-56694077D01*
X145623143Y-56738644D01*
X145530244Y-56920968D01*
X145467009Y-57115582D01*
X145435000Y-57317682D01*
X132035000Y-57317682D01*
X132002990Y-57115582D01*
X131939755Y-56920968D01*
X131846859Y-56738650D01*
X131814474Y-56694077D01*
X131814474Y-56694076D01*
X131135000Y-57373551D01*
X131135000Y-57367339D01*
X131107741Y-57265606D01*
X131055080Y-57174394D01*
X130980606Y-57099920D01*
X130889394Y-57047259D01*
X130787661Y-57020000D01*
X130781446Y-57020000D01*
X131460922Y-56340524D01*
X131460921Y-56340523D01*
X131416359Y-56308147D01*
X131416350Y-56308141D01*
X131234031Y-56215244D01*
X131039417Y-56152009D01*
X130837317Y-56120000D01*
X130632683Y-56120000D01*
X130430582Y-56152009D01*
X130235968Y-56215244D01*
X130053644Y-56308143D01*
X130009077Y-56340523D01*
X130009077Y-56340524D01*
X130688554Y-57020000D01*
X130682339Y-57020000D01*
X130580606Y-57047259D01*
X130489394Y-57099920D01*
X130414920Y-57174394D01*
X130362259Y-57265606D01*
X130335000Y-57367339D01*
X130335000Y-57373553D01*
X129655524Y-56694077D01*
X129655523Y-56694077D01*
X129623143Y-56738644D01*
X129530244Y-56920968D01*
X129467009Y-57115582D01*
X129435000Y-57317682D01*
X116035000Y-57317682D01*
X116002990Y-57115582D01*
X115939755Y-56920968D01*
X115846859Y-56738650D01*
X115814474Y-56694077D01*
X115814474Y-56694076D01*
X115135000Y-57373551D01*
X115135000Y-57367339D01*
X115107741Y-57265606D01*
X115055080Y-57174394D01*
X114980606Y-57099920D01*
X114889394Y-57047259D01*
X114787661Y-57020000D01*
X114781446Y-57020000D01*
X115460922Y-56340524D01*
X115460921Y-56340523D01*
X115416359Y-56308147D01*
X115416350Y-56308141D01*
X115234031Y-56215244D01*
X115039417Y-56152009D01*
X114837317Y-56120000D01*
X114632683Y-56120000D01*
X114430582Y-56152009D01*
X114235968Y-56215244D01*
X114053644Y-56308143D01*
X114009077Y-56340523D01*
X114009077Y-56340524D01*
X114688554Y-57020000D01*
X114682339Y-57020000D01*
X114580606Y-57047259D01*
X114489394Y-57099920D01*
X114414920Y-57174394D01*
X114362259Y-57265606D01*
X114335000Y-57367339D01*
X114335000Y-57373553D01*
X113655524Y-56694077D01*
X113655523Y-56694077D01*
X113623143Y-56738644D01*
X113530244Y-56920968D01*
X113467009Y-57115582D01*
X113435000Y-57317682D01*
X100535000Y-57317682D01*
X100502990Y-57115582D01*
X100439755Y-56920968D01*
X100346859Y-56738650D01*
X100314474Y-56694077D01*
X100314474Y-56694076D01*
X99635000Y-57373551D01*
X99635000Y-57367339D01*
X99607741Y-57265606D01*
X99555080Y-57174394D01*
X99480606Y-57099920D01*
X99389394Y-57047259D01*
X99287661Y-57020000D01*
X99281446Y-57020000D01*
X99960922Y-56340524D01*
X99960921Y-56340523D01*
X99916359Y-56308147D01*
X99916350Y-56308141D01*
X99734031Y-56215244D01*
X99539417Y-56152009D01*
X99337317Y-56120000D01*
X99132683Y-56120000D01*
X98930582Y-56152009D01*
X98735968Y-56215244D01*
X98553644Y-56308143D01*
X98509077Y-56340523D01*
X98509077Y-56340524D01*
X99188554Y-57020000D01*
X99182339Y-57020000D01*
X99080606Y-57047259D01*
X98989394Y-57099920D01*
X98914920Y-57174394D01*
X98862259Y-57265606D01*
X98835000Y-57367339D01*
X98835000Y-57373553D01*
X98155524Y-56694077D01*
X98155523Y-56694077D01*
X98123143Y-56738644D01*
X98030244Y-56920968D01*
X97967009Y-57115582D01*
X97935000Y-57317682D01*
X84535000Y-57317682D01*
X84502990Y-57115582D01*
X84439755Y-56920968D01*
X84346859Y-56738650D01*
X84314474Y-56694077D01*
X84314474Y-56694076D01*
X83635000Y-57373551D01*
X83635000Y-57367339D01*
X83607741Y-57265606D01*
X83555080Y-57174394D01*
X83480606Y-57099920D01*
X83389394Y-57047259D01*
X83287661Y-57020000D01*
X83281446Y-57020000D01*
X83960922Y-56340524D01*
X83960921Y-56340523D01*
X83916359Y-56308147D01*
X83916350Y-56308141D01*
X83734031Y-56215244D01*
X83539417Y-56152009D01*
X83337317Y-56120000D01*
X83132683Y-56120000D01*
X82930582Y-56152009D01*
X82735968Y-56215244D01*
X82553644Y-56308143D01*
X82509077Y-56340523D01*
X82509077Y-56340524D01*
X83188554Y-57020000D01*
X83182339Y-57020000D01*
X83080606Y-57047259D01*
X82989394Y-57099920D01*
X82914920Y-57174394D01*
X82862259Y-57265606D01*
X82835000Y-57367339D01*
X82835000Y-57373553D01*
X82155524Y-56694077D01*
X82155523Y-56694077D01*
X82123143Y-56738644D01*
X82030244Y-56920968D01*
X81967009Y-57115582D01*
X81935000Y-57317682D01*
X68535000Y-57317682D01*
X68502990Y-57115582D01*
X68439755Y-56920968D01*
X68346859Y-56738650D01*
X68314474Y-56694077D01*
X68314474Y-56694076D01*
X67635000Y-57373551D01*
X67635000Y-57367339D01*
X67607741Y-57265606D01*
X67555080Y-57174394D01*
X67480606Y-57099920D01*
X67389394Y-57047259D01*
X67287661Y-57020000D01*
X67281446Y-57020000D01*
X67960922Y-56340524D01*
X67960921Y-56340523D01*
X67916359Y-56308147D01*
X67916350Y-56308141D01*
X67734031Y-56215244D01*
X67539417Y-56152009D01*
X67337317Y-56120000D01*
X67132683Y-56120000D01*
X66930582Y-56152009D01*
X66735968Y-56215244D01*
X66553644Y-56308143D01*
X66509077Y-56340523D01*
X66509077Y-56340524D01*
X67188554Y-57020000D01*
X67182339Y-57020000D01*
X67080606Y-57047259D01*
X66989394Y-57099920D01*
X66914920Y-57174394D01*
X66862259Y-57265606D01*
X66835000Y-57367339D01*
X66835000Y-57373553D01*
X66155524Y-56694077D01*
X66155523Y-56694077D01*
X66123143Y-56738644D01*
X66030244Y-56920968D01*
X65967009Y-57115582D01*
X65935000Y-57317682D01*
X52535000Y-57317682D01*
X52502990Y-57115582D01*
X52439755Y-56920968D01*
X52346859Y-56738650D01*
X52314474Y-56694077D01*
X52314474Y-56694076D01*
X51635000Y-57373551D01*
X51635000Y-57367339D01*
X51607741Y-57265606D01*
X51555080Y-57174394D01*
X51480606Y-57099920D01*
X51389394Y-57047259D01*
X51287661Y-57020000D01*
X51281446Y-57020000D01*
X51960922Y-56340524D01*
X51960921Y-56340523D01*
X51916359Y-56308147D01*
X51916350Y-56308141D01*
X51734031Y-56215244D01*
X51539417Y-56152009D01*
X51337317Y-56120000D01*
X51132683Y-56120000D01*
X50930582Y-56152009D01*
X50735968Y-56215244D01*
X50553644Y-56308143D01*
X50509077Y-56340523D01*
X50509077Y-56340524D01*
X51188554Y-57020000D01*
X51182339Y-57020000D01*
X51080606Y-57047259D01*
X50989394Y-57099920D01*
X50914920Y-57174394D01*
X50862259Y-57265606D01*
X50835000Y-57367339D01*
X50835000Y-57373553D01*
X50155524Y-56694077D01*
X50155523Y-56694077D01*
X50123143Y-56738644D01*
X50030244Y-56920968D01*
X49967009Y-57115582D01*
X49935000Y-57317682D01*
X48235000Y-57317682D01*
X48235000Y-55124627D01*
X48254685Y-55057588D01*
X48307489Y-55011833D01*
X48359624Y-55000629D01*
X146071759Y-55494125D01*
X147234999Y-55500000D01*
X147235000Y-55500000D01*
X147235000Y-41000000D01*
X90235000Y-41000000D01*
X90235000Y-43597532D01*
X90215315Y-43664571D01*
X90162511Y-43710326D01*
X90093353Y-43720270D01*
X90060545Y-43709351D01*
X90060399Y-43709746D01*
X89917379Y-43656403D01*
X89917372Y-43656401D01*
X89857844Y-43650000D01*
X89210000Y-43650000D01*
X89210000Y-44566988D01*
X89152993Y-44534075D01*
X89025826Y-44500000D01*
X88894174Y-44500000D01*
X88767007Y-44534075D01*
X88710000Y-44566988D01*
X88710000Y-43650000D01*
X88062155Y-43650000D01*
X88002627Y-43656401D01*
X88002620Y-43656403D01*
X87867913Y-43706645D01*
X87867906Y-43706649D01*
X87752812Y-43792809D01*
X87752809Y-43792812D01*
X87666649Y-43907906D01*
X87666645Y-43907913D01*
X87616403Y-44042620D01*
X87616401Y-44042627D01*
X87610000Y-44102155D01*
X87610000Y-44750000D01*
X88526988Y-44750000D01*
X88494075Y-44807007D01*
X88460000Y-44934174D01*
X88460000Y-45065826D01*
X88494075Y-45192993D01*
X88526988Y-45250000D01*
X87610000Y-45250000D01*
X87610000Y-45897844D01*
X87616401Y-45957372D01*
X87616403Y-45957379D01*
X87666645Y-46092086D01*
X87666649Y-46092093D01*
X87752809Y-46207187D01*
X87752812Y-46207190D01*
X87867906Y-46293350D01*
X87867913Y-46293354D01*
X88002620Y-46343596D01*
X88002627Y-46343598D01*
X88062155Y-46349999D01*
X88062172Y-46350000D01*
X88710000Y-46350000D01*
X88710000Y-45433012D01*
X88767007Y-45465925D01*
X88894174Y-45500000D01*
X89025826Y-45500000D01*
X89152993Y-45465925D01*
X89210000Y-45433012D01*
X89210000Y-46350000D01*
X89857828Y-46350000D01*
X89857844Y-46349999D01*
X89917372Y-46343598D01*
X89917379Y-46343596D01*
X90060399Y-46290254D01*
X90060903Y-46291606D01*
X90119841Y-46278783D01*
X90185307Y-46303197D01*
X90227180Y-46359129D01*
X90235000Y-46402467D01*
X90235000Y-47876000D01*
X90215315Y-47943039D01*
X90162511Y-47988794D01*
X90111000Y-48000000D01*
X68359000Y-48000000D01*
X68291961Y-47980315D01*
X68246206Y-47927511D01*
X68235000Y-47876000D01*
X68235000Y-44897682D01*
X73015000Y-44897682D01*
X73015000Y-45102317D01*
X73047009Y-45304417D01*
X73110244Y-45499031D01*
X73203141Y-45681350D01*
X73203147Y-45681359D01*
X73235523Y-45725921D01*
X73235524Y-45725922D01*
X73915000Y-45046446D01*
X73915000Y-45052661D01*
X73942259Y-45154394D01*
X73994920Y-45245606D01*
X74069394Y-45320080D01*
X74160606Y-45372741D01*
X74262339Y-45400000D01*
X74268553Y-45400000D01*
X73589076Y-46079474D01*
X73633650Y-46111859D01*
X73815968Y-46204755D01*
X74010582Y-46267990D01*
X74212683Y-46300000D01*
X74417317Y-46300000D01*
X74619417Y-46267990D01*
X74814031Y-46204755D01*
X74996349Y-46111859D01*
X75040921Y-46079474D01*
X74361447Y-45400000D01*
X74367661Y-45400000D01*
X74469394Y-45372741D01*
X74560606Y-45320080D01*
X74635080Y-45245606D01*
X74687741Y-45154394D01*
X74715000Y-45052661D01*
X74715000Y-45046447D01*
X75394474Y-45725921D01*
X75426859Y-45681349D01*
X75519755Y-45499031D01*
X75582989Y-45304417D01*
X75602816Y-45179240D01*
X75602816Y-45179239D01*
X75615000Y-45102316D01*
X75615000Y-44897682D01*
X75582990Y-44695582D01*
X75519755Y-44500968D01*
X75426859Y-44318650D01*
X75394474Y-44274077D01*
X75394474Y-44274076D01*
X74715000Y-44953551D01*
X74715000Y-44947339D01*
X74687741Y-44845606D01*
X74635080Y-44754394D01*
X74560606Y-44679920D01*
X74469394Y-44627259D01*
X74367661Y-44600000D01*
X74361446Y-44600000D01*
X74950277Y-44011170D01*
X75040922Y-43920524D01*
X75040921Y-43920523D01*
X74996359Y-43888147D01*
X74996350Y-43888141D01*
X74814031Y-43795244D01*
X74619417Y-43732009D01*
X74417317Y-43700000D01*
X74212683Y-43700000D01*
X74010582Y-43732009D01*
X73815968Y-43795244D01*
X73633644Y-43888143D01*
X73589077Y-43920523D01*
X73589077Y-43920524D01*
X74268554Y-44600000D01*
X74262339Y-44600000D01*
X74160606Y-44627259D01*
X74069394Y-44679920D01*
X73994920Y-44754394D01*
X73942259Y-44845606D01*
X73915000Y-44947339D01*
X73915000Y-44953553D01*
X73235524Y-44274077D01*
X73235523Y-44274077D01*
X73203143Y-44318644D01*
X73110244Y-44500968D01*
X73047009Y-44695582D01*
X73015000Y-44897682D01*
X68235000Y-44897682D01*
X68235000Y-38124000D01*
X68254685Y-38056961D01*
X68307489Y-38011206D01*
X68359000Y-38000000D01*
X148768074Y-38000000D01*
X148835113Y-38019685D01*
G37*
%TD.AperFunction*%
%TD*%
%TA.AperFunction,Conductor*%
%TO.N,GND*%
G36*
X96178039Y-41525185D02*
G01*
X96223794Y-41577989D01*
X96235000Y-41629500D01*
X96235000Y-50376000D01*
X96215315Y-50443039D01*
X96162511Y-50488794D01*
X96111000Y-50500000D01*
X44235000Y-50500000D01*
X43734999Y-76999999D01*
X43735000Y-77000000D01*
X50111290Y-77000000D01*
X50178329Y-77019685D01*
X50224084Y-77072489D01*
X50234028Y-77141647D01*
X50211608Y-77196886D01*
X50123140Y-77318650D01*
X50030244Y-77500968D01*
X49967009Y-77695582D01*
X49935000Y-77897682D01*
X49935000Y-78102317D01*
X49967009Y-78304417D01*
X50030244Y-78499031D01*
X50123141Y-78681350D01*
X50123147Y-78681359D01*
X50155523Y-78725921D01*
X50155524Y-78725922D01*
X50835000Y-78046446D01*
X50835000Y-78052661D01*
X50862259Y-78154394D01*
X50914920Y-78245606D01*
X50989394Y-78320080D01*
X51080606Y-78372741D01*
X51182339Y-78400000D01*
X51188553Y-78400000D01*
X50509076Y-79079474D01*
X50553650Y-79111859D01*
X50735968Y-79204755D01*
X50930582Y-79267990D01*
X51132683Y-79300000D01*
X51337317Y-79300000D01*
X51539417Y-79267990D01*
X51734031Y-79204755D01*
X51916349Y-79111859D01*
X51960921Y-79079474D01*
X51281447Y-78400000D01*
X51287661Y-78400000D01*
X51389394Y-78372741D01*
X51480606Y-78320080D01*
X51555080Y-78245606D01*
X51607741Y-78154394D01*
X51635000Y-78052661D01*
X51635000Y-78046447D01*
X52314474Y-78725921D01*
X52346859Y-78681349D01*
X52439755Y-78499031D01*
X52502990Y-78304417D01*
X52535000Y-78102317D01*
X52535000Y-77897682D01*
X52502990Y-77695582D01*
X52439754Y-77500965D01*
X52429684Y-77481202D01*
X52429683Y-77481201D01*
X52403482Y-77429778D01*
X58334500Y-77429778D01*
X58334500Y-77650221D01*
X58368985Y-77867952D01*
X58437103Y-78077603D01*
X58437104Y-78077606D01*
X58537187Y-78274025D01*
X58666752Y-78452358D01*
X58666756Y-78452363D01*
X58822636Y-78608243D01*
X58822641Y-78608247D01*
X58978192Y-78721260D01*
X59000978Y-78737815D01*
X59129375Y-78803237D01*
X59197393Y-78837895D01*
X59197396Y-78837896D01*
X59245585Y-78853553D01*
X59407049Y-78906015D01*
X59624778Y-78940500D01*
X59624779Y-78940500D01*
X59845221Y-78940500D01*
X59845222Y-78940500D01*
X60062951Y-78906015D01*
X60272606Y-78837895D01*
X60469022Y-78737815D01*
X60647365Y-78608242D01*
X60803242Y-78452365D01*
X60932815Y-78274022D01*
X61032895Y-78077606D01*
X61101015Y-77867951D01*
X61135500Y-77650222D01*
X61135500Y-77429778D01*
X61101015Y-77212049D01*
X61032895Y-77002394D01*
X61032895Y-77002393D01*
X60998237Y-76934375D01*
X60932815Y-76805978D01*
X60905569Y-76768477D01*
X60803247Y-76627641D01*
X60803243Y-76627636D01*
X60752683Y-76577076D01*
X60719198Y-76515753D01*
X60724182Y-76446061D01*
X60766054Y-76390128D01*
X60797031Y-76373213D01*
X60877086Y-76343354D01*
X60877093Y-76343350D01*
X60992187Y-76257190D01*
X60992190Y-76257187D01*
X61078350Y-76142093D01*
X61078354Y-76142086D01*
X61128596Y-76007379D01*
X61128598Y-76007372D01*
X61134999Y-75947844D01*
X61135000Y-75947827D01*
X61135000Y-75250000D01*
X60110278Y-75250000D01*
X60154333Y-75173694D01*
X60185000Y-75059244D01*
X60185000Y-74940756D01*
X60154333Y-74826306D01*
X60110278Y-74750000D01*
X61135000Y-74750000D01*
X61135000Y-74052172D01*
X61134999Y-74052155D01*
X61128598Y-73992627D01*
X61128596Y-73992620D01*
X61078354Y-73857913D01*
X61078350Y-73857906D01*
X60992190Y-73742812D01*
X60992187Y-73742809D01*
X60877093Y-73656649D01*
X60877086Y-73656645D01*
X60742379Y-73606403D01*
X60742372Y-73606401D01*
X60682844Y-73600000D01*
X59985000Y-73600000D01*
X59985000Y-74624722D01*
X59908694Y-74580667D01*
X59794244Y-74550000D01*
X59675756Y-74550000D01*
X59561306Y-74580667D01*
X59485000Y-74624722D01*
X59485000Y-73600000D01*
X58787155Y-73600000D01*
X58727627Y-73606401D01*
X58727620Y-73606403D01*
X58592913Y-73656645D01*
X58592906Y-73656649D01*
X58477812Y-73742809D01*
X58477809Y-73742812D01*
X58391649Y-73857906D01*
X58391645Y-73857913D01*
X58341403Y-73992620D01*
X58341401Y-73992627D01*
X58335000Y-74052155D01*
X58335000Y-74750000D01*
X59359722Y-74750000D01*
X59315667Y-74826306D01*
X59285000Y-74940756D01*
X59285000Y-75059244D01*
X59315667Y-75173694D01*
X59359722Y-75250000D01*
X58335000Y-75250000D01*
X58335000Y-75947844D01*
X58341401Y-76007372D01*
X58341403Y-76007379D01*
X58391645Y-76142086D01*
X58391649Y-76142093D01*
X58477809Y-76257187D01*
X58477812Y-76257190D01*
X58592906Y-76343350D01*
X58592913Y-76343354D01*
X58672968Y-76373213D01*
X58728902Y-76415084D01*
X58753319Y-76480549D01*
X58738467Y-76548822D01*
X58717317Y-76577075D01*
X58666756Y-76627636D01*
X58666752Y-76627641D01*
X58537187Y-76805974D01*
X58437104Y-77002393D01*
X58437103Y-77002396D01*
X58368985Y-77212047D01*
X58334500Y-77429778D01*
X52403482Y-77429778D01*
X52346859Y-77318650D01*
X52258392Y-77196886D01*
X52234912Y-77131079D01*
X52250737Y-77063025D01*
X52300843Y-77014330D01*
X52358710Y-77000000D01*
X56235000Y-77000000D01*
X56235000Y-72624000D01*
X56254685Y-72556961D01*
X56307489Y-72511206D01*
X56359000Y-72500000D01*
X64111000Y-72500000D01*
X64178039Y-72519685D01*
X64223794Y-72572489D01*
X64235000Y-72624000D01*
X64235000Y-77000000D01*
X66111290Y-77000000D01*
X66178329Y-77019685D01*
X66224084Y-77072489D01*
X66234028Y-77141647D01*
X66211608Y-77196886D01*
X66123140Y-77318650D01*
X66030244Y-77500968D01*
X65967009Y-77695582D01*
X65935000Y-77897682D01*
X65935000Y-78102317D01*
X65967009Y-78304417D01*
X66030244Y-78499031D01*
X66123141Y-78681350D01*
X66123147Y-78681359D01*
X66155523Y-78725921D01*
X66155524Y-78725922D01*
X66835000Y-78046446D01*
X66835000Y-78052661D01*
X66862259Y-78154394D01*
X66914920Y-78245606D01*
X66989394Y-78320080D01*
X67080606Y-78372741D01*
X67182339Y-78400000D01*
X67188553Y-78400000D01*
X66509076Y-79079474D01*
X66553650Y-79111859D01*
X66735968Y-79204755D01*
X66930582Y-79267990D01*
X67132683Y-79300000D01*
X67337317Y-79300000D01*
X67539417Y-79267990D01*
X67734031Y-79204755D01*
X67916349Y-79111859D01*
X67960921Y-79079474D01*
X67281447Y-78400000D01*
X67287661Y-78400000D01*
X67389394Y-78372741D01*
X67480606Y-78320080D01*
X67555080Y-78245606D01*
X67607741Y-78154394D01*
X67635000Y-78052661D01*
X67635000Y-78046447D01*
X68314474Y-78725921D01*
X68346859Y-78681349D01*
X68439755Y-78499031D01*
X68502990Y-78304417D01*
X68535000Y-78102317D01*
X68535000Y-77897682D01*
X68502990Y-77695582D01*
X68439754Y-77500965D01*
X68429684Y-77481202D01*
X68429683Y-77481201D01*
X68403482Y-77429778D01*
X74334500Y-77429778D01*
X74334500Y-77650221D01*
X74368985Y-77867952D01*
X74437103Y-78077603D01*
X74437104Y-78077606D01*
X74537187Y-78274025D01*
X74666752Y-78452358D01*
X74666756Y-78452363D01*
X74822636Y-78608243D01*
X74822641Y-78608247D01*
X74978192Y-78721260D01*
X75000978Y-78737815D01*
X75129375Y-78803237D01*
X75197393Y-78837895D01*
X75197396Y-78837896D01*
X75245585Y-78853553D01*
X75407049Y-78906015D01*
X75624778Y-78940500D01*
X75624779Y-78940500D01*
X75845221Y-78940500D01*
X75845222Y-78940500D01*
X76062951Y-78906015D01*
X76272606Y-78837895D01*
X76469022Y-78737815D01*
X76647365Y-78608242D01*
X76803242Y-78452365D01*
X76932815Y-78274022D01*
X77032895Y-78077606D01*
X77101015Y-77867951D01*
X77135500Y-77650222D01*
X77135500Y-77429778D01*
X77101015Y-77212049D01*
X77032895Y-77002394D01*
X77032895Y-77002393D01*
X76998237Y-76934375D01*
X76932815Y-76805978D01*
X76905569Y-76768477D01*
X76803247Y-76627641D01*
X76803243Y-76627636D01*
X76752683Y-76577076D01*
X76719198Y-76515753D01*
X76724182Y-76446061D01*
X76766054Y-76390128D01*
X76797031Y-76373213D01*
X76877086Y-76343354D01*
X76877093Y-76343350D01*
X76992187Y-76257190D01*
X76992190Y-76257187D01*
X77078350Y-76142093D01*
X77078354Y-76142086D01*
X77128596Y-76007379D01*
X77128598Y-76007372D01*
X77134999Y-75947844D01*
X77135000Y-75947827D01*
X77135000Y-75250000D01*
X76110278Y-75250000D01*
X76154333Y-75173694D01*
X76185000Y-75059244D01*
X76185000Y-74940756D01*
X76154333Y-74826306D01*
X76110278Y-74750000D01*
X77135000Y-74750000D01*
X77135000Y-74052172D01*
X77134999Y-74052155D01*
X77128598Y-73992627D01*
X77128596Y-73992620D01*
X77078354Y-73857913D01*
X77078350Y-73857906D01*
X76992190Y-73742812D01*
X76992187Y-73742809D01*
X76877093Y-73656649D01*
X76877086Y-73656645D01*
X76742379Y-73606403D01*
X76742372Y-73606401D01*
X76682844Y-73600000D01*
X75985000Y-73600000D01*
X75985000Y-74624722D01*
X75908694Y-74580667D01*
X75794244Y-74550000D01*
X75675756Y-74550000D01*
X75561306Y-74580667D01*
X75485000Y-74624722D01*
X75485000Y-73600000D01*
X74787155Y-73600000D01*
X74727627Y-73606401D01*
X74727620Y-73606403D01*
X74592913Y-73656645D01*
X74592906Y-73656649D01*
X74477812Y-73742809D01*
X74477809Y-73742812D01*
X74391649Y-73857906D01*
X74391645Y-73857913D01*
X74341403Y-73992620D01*
X74341401Y-73992627D01*
X74335000Y-74052155D01*
X74335000Y-74750000D01*
X75359722Y-74750000D01*
X75315667Y-74826306D01*
X75285000Y-74940756D01*
X75285000Y-75059244D01*
X75315667Y-75173694D01*
X75359722Y-75250000D01*
X74335000Y-75250000D01*
X74335000Y-75947844D01*
X74341401Y-76007372D01*
X74341403Y-76007379D01*
X74391645Y-76142086D01*
X74391649Y-76142093D01*
X74477809Y-76257187D01*
X74477812Y-76257190D01*
X74592906Y-76343350D01*
X74592913Y-76343354D01*
X74672968Y-76373213D01*
X74728902Y-76415084D01*
X74753319Y-76480549D01*
X74738467Y-76548822D01*
X74717317Y-76577075D01*
X74666756Y-76627636D01*
X74666752Y-76627641D01*
X74537187Y-76805974D01*
X74437104Y-77002393D01*
X74437103Y-77002396D01*
X74368985Y-77212047D01*
X74334500Y-77429778D01*
X68403482Y-77429778D01*
X68346859Y-77318650D01*
X68258392Y-77196886D01*
X68234912Y-77131079D01*
X68250737Y-77063025D01*
X68300843Y-77014330D01*
X68358710Y-77000000D01*
X71735000Y-77000000D01*
X71735000Y-72124000D01*
X71754685Y-72056961D01*
X71807489Y-72011206D01*
X71859000Y-72000000D01*
X79111000Y-72000000D01*
X79178039Y-72019685D01*
X79223794Y-72072489D01*
X79235000Y-72124000D01*
X79235000Y-77000000D01*
X82111290Y-77000000D01*
X82178329Y-77019685D01*
X82224084Y-77072489D01*
X82234028Y-77141647D01*
X82211608Y-77196886D01*
X82123140Y-77318650D01*
X82030244Y-77500968D01*
X81967009Y-77695582D01*
X81935000Y-77897682D01*
X81935000Y-78102317D01*
X81967009Y-78304417D01*
X82030244Y-78499031D01*
X82123141Y-78681350D01*
X82123147Y-78681359D01*
X82155523Y-78725921D01*
X82155524Y-78725922D01*
X82835000Y-78046446D01*
X82835000Y-78052661D01*
X82862259Y-78154394D01*
X82914920Y-78245606D01*
X82989394Y-78320080D01*
X83080606Y-78372741D01*
X83182339Y-78400000D01*
X83188553Y-78400000D01*
X82509076Y-79079474D01*
X82553650Y-79111859D01*
X82735968Y-79204755D01*
X82930582Y-79267990D01*
X83132683Y-79300000D01*
X83337317Y-79300000D01*
X83539417Y-79267990D01*
X83734031Y-79204755D01*
X83916349Y-79111859D01*
X83960921Y-79079474D01*
X83281447Y-78400000D01*
X83287661Y-78400000D01*
X83389394Y-78372741D01*
X83480606Y-78320080D01*
X83555080Y-78245606D01*
X83607741Y-78154394D01*
X83635000Y-78052661D01*
X83635000Y-78046447D01*
X84314474Y-78725921D01*
X84346859Y-78681349D01*
X84439755Y-78499031D01*
X84502990Y-78304417D01*
X84535000Y-78102317D01*
X84535000Y-77897682D01*
X84502990Y-77695582D01*
X84439754Y-77500965D01*
X84429684Y-77481202D01*
X84429683Y-77481201D01*
X84403482Y-77429778D01*
X90334500Y-77429778D01*
X90334500Y-77650221D01*
X90368985Y-77867952D01*
X90437103Y-78077603D01*
X90437104Y-78077606D01*
X90537187Y-78274025D01*
X90666752Y-78452358D01*
X90666756Y-78452363D01*
X90822636Y-78608243D01*
X90822641Y-78608247D01*
X90978192Y-78721260D01*
X91000978Y-78737815D01*
X91129375Y-78803237D01*
X91197393Y-78837895D01*
X91197396Y-78837896D01*
X91245585Y-78853553D01*
X91407049Y-78906015D01*
X91624778Y-78940500D01*
X91624779Y-78940500D01*
X91845221Y-78940500D01*
X91845222Y-78940500D01*
X92062951Y-78906015D01*
X92272606Y-78837895D01*
X92469022Y-78737815D01*
X92647365Y-78608242D01*
X92803242Y-78452365D01*
X92932815Y-78274022D01*
X93032895Y-78077606D01*
X93101015Y-77867951D01*
X93135500Y-77650222D01*
X93135500Y-77429778D01*
X93101015Y-77212049D01*
X93032895Y-77002394D01*
X93032895Y-77002393D01*
X92998237Y-76934375D01*
X92932815Y-76805978D01*
X92905569Y-76768477D01*
X92803247Y-76627641D01*
X92803243Y-76627636D01*
X92752683Y-76577076D01*
X92719198Y-76515753D01*
X92724182Y-76446061D01*
X92766054Y-76390128D01*
X92797031Y-76373213D01*
X92877086Y-76343354D01*
X92877093Y-76343350D01*
X92992187Y-76257190D01*
X92992190Y-76257187D01*
X93078350Y-76142093D01*
X93078354Y-76142086D01*
X93128596Y-76007379D01*
X93128598Y-76007372D01*
X93134999Y-75947844D01*
X93135000Y-75947827D01*
X93135000Y-75250000D01*
X92110278Y-75250000D01*
X92154333Y-75173694D01*
X92185000Y-75059244D01*
X92185000Y-74940756D01*
X92154333Y-74826306D01*
X92110278Y-74750000D01*
X93135000Y-74750000D01*
X93135000Y-74052172D01*
X93134999Y-74052155D01*
X93128598Y-73992627D01*
X93128596Y-73992620D01*
X93078354Y-73857913D01*
X93078350Y-73857906D01*
X92992190Y-73742812D01*
X92992187Y-73742809D01*
X92877093Y-73656649D01*
X92877086Y-73656645D01*
X92742379Y-73606403D01*
X92742372Y-73606401D01*
X92682844Y-73600000D01*
X91985000Y-73600000D01*
X91985000Y-74624722D01*
X91908694Y-74580667D01*
X91794244Y-74550000D01*
X91675756Y-74550000D01*
X91561306Y-74580667D01*
X91485000Y-74624722D01*
X91485000Y-73600000D01*
X90787155Y-73600000D01*
X90727627Y-73606401D01*
X90727620Y-73606403D01*
X90592913Y-73656645D01*
X90592906Y-73656649D01*
X90477812Y-73742809D01*
X90477809Y-73742812D01*
X90391649Y-73857906D01*
X90391645Y-73857913D01*
X90341403Y-73992620D01*
X90341401Y-73992627D01*
X90335000Y-74052155D01*
X90335000Y-74750000D01*
X91359722Y-74750000D01*
X91315667Y-74826306D01*
X91285000Y-74940756D01*
X91285000Y-75059244D01*
X91315667Y-75173694D01*
X91359722Y-75250000D01*
X90335000Y-75250000D01*
X90335000Y-75947844D01*
X90341401Y-76007372D01*
X90341403Y-76007379D01*
X90391645Y-76142086D01*
X90391649Y-76142093D01*
X90477809Y-76257187D01*
X90477812Y-76257190D01*
X90592906Y-76343350D01*
X90592913Y-76343354D01*
X90672968Y-76373213D01*
X90728902Y-76415084D01*
X90753319Y-76480549D01*
X90738467Y-76548822D01*
X90717317Y-76577075D01*
X90666756Y-76627636D01*
X90666752Y-76627641D01*
X90537187Y-76805974D01*
X90437104Y-77002393D01*
X90437103Y-77002396D01*
X90368985Y-77212047D01*
X90334500Y-77429778D01*
X84403482Y-77429778D01*
X84346859Y-77318650D01*
X84258392Y-77196886D01*
X84234912Y-77131079D01*
X84250737Y-77063025D01*
X84300843Y-77014330D01*
X84358710Y-77000000D01*
X87735000Y-77000000D01*
X87735000Y-72124000D01*
X87754685Y-72056961D01*
X87807489Y-72011206D01*
X87859000Y-72000000D01*
X96111000Y-72000000D01*
X96178039Y-72019685D01*
X96223794Y-72072489D01*
X96235000Y-72124000D01*
X96235000Y-77000000D01*
X98027558Y-77128039D01*
X98093022Y-77152450D01*
X98134899Y-77208380D01*
X98139890Y-77278071D01*
X98125339Y-77314303D01*
X98125352Y-77314310D01*
X98125278Y-77314453D01*
X98124457Y-77316500D01*
X98123144Y-77318642D01*
X98030244Y-77500968D01*
X97967009Y-77695582D01*
X97935000Y-77897682D01*
X97935000Y-78102317D01*
X97967009Y-78304417D01*
X98030244Y-78499031D01*
X98123141Y-78681350D01*
X98123147Y-78681359D01*
X98155523Y-78725921D01*
X98155524Y-78725922D01*
X98835000Y-78046446D01*
X98835000Y-78052661D01*
X98862259Y-78154394D01*
X98914920Y-78245606D01*
X98989394Y-78320080D01*
X99080606Y-78372741D01*
X99182339Y-78400000D01*
X99188553Y-78400000D01*
X98509076Y-79079474D01*
X98553650Y-79111859D01*
X98735968Y-79204755D01*
X98930582Y-79267990D01*
X99132683Y-79300000D01*
X99337317Y-79300000D01*
X99539417Y-79267990D01*
X99734031Y-79204755D01*
X99916349Y-79111859D01*
X99960921Y-79079474D01*
X99281447Y-78400000D01*
X99287661Y-78400000D01*
X99389394Y-78372741D01*
X99480606Y-78320080D01*
X99555080Y-78245606D01*
X99607741Y-78154394D01*
X99635000Y-78052661D01*
X99635000Y-78046447D01*
X100314474Y-78725921D01*
X100346859Y-78681349D01*
X100439755Y-78499031D01*
X100502990Y-78304417D01*
X100535000Y-78102317D01*
X100535000Y-77897682D01*
X100502990Y-77695582D01*
X100439754Y-77500966D01*
X100433343Y-77488384D01*
X100420446Y-77419715D01*
X100446722Y-77354974D01*
X100503828Y-77314717D01*
X100552654Y-77308403D01*
X103235000Y-77500000D01*
X103242022Y-77429778D01*
X105834500Y-77429778D01*
X105834500Y-77650221D01*
X105868985Y-77867952D01*
X105937103Y-78077603D01*
X105937104Y-78077606D01*
X106037187Y-78274025D01*
X106166752Y-78452358D01*
X106166756Y-78452363D01*
X106322636Y-78608243D01*
X106322641Y-78608247D01*
X106478192Y-78721260D01*
X106500978Y-78737815D01*
X106629375Y-78803237D01*
X106697393Y-78837895D01*
X106697396Y-78837896D01*
X106745585Y-78853553D01*
X106907049Y-78906015D01*
X107124778Y-78940500D01*
X107124779Y-78940500D01*
X107345221Y-78940500D01*
X107345222Y-78940500D01*
X107562951Y-78906015D01*
X107772606Y-78837895D01*
X107969022Y-78737815D01*
X108147365Y-78608242D01*
X108303242Y-78452365D01*
X108303244Y-78452361D01*
X108303247Y-78452359D01*
X108399461Y-78319931D01*
X108414097Y-78299783D01*
X108432815Y-78274022D01*
X108532895Y-78077606D01*
X108601015Y-77867951D01*
X108635500Y-77650222D01*
X108635500Y-77429778D01*
X108601015Y-77212049D01*
X108532895Y-77002394D01*
X108532895Y-77002393D01*
X108498237Y-76934375D01*
X108432815Y-76805978D01*
X108405569Y-76768477D01*
X108303247Y-76627641D01*
X108303243Y-76627636D01*
X108252683Y-76577076D01*
X108219198Y-76515753D01*
X108224182Y-76446061D01*
X108266054Y-76390128D01*
X108297031Y-76373213D01*
X108377086Y-76343354D01*
X108377093Y-76343350D01*
X108492187Y-76257190D01*
X108492190Y-76257187D01*
X108578350Y-76142093D01*
X108578354Y-76142086D01*
X108628596Y-76007379D01*
X108628598Y-76007372D01*
X108634999Y-75947844D01*
X108635000Y-75947827D01*
X108635000Y-75250000D01*
X107610278Y-75250000D01*
X107654333Y-75173694D01*
X107685000Y-75059244D01*
X107685000Y-74940756D01*
X107654333Y-74826306D01*
X107610278Y-74750000D01*
X108635000Y-74750000D01*
X108635000Y-74052172D01*
X108634999Y-74052155D01*
X108628598Y-73992627D01*
X108628596Y-73992620D01*
X108578354Y-73857913D01*
X108578350Y-73857906D01*
X108492190Y-73742812D01*
X108492187Y-73742809D01*
X108377093Y-73656649D01*
X108377086Y-73656645D01*
X108242379Y-73606403D01*
X108242372Y-73606401D01*
X108182844Y-73600000D01*
X107485000Y-73600000D01*
X107485000Y-74624722D01*
X107408694Y-74580667D01*
X107294244Y-74550000D01*
X107175756Y-74550000D01*
X107061306Y-74580667D01*
X106985000Y-74624722D01*
X106985000Y-73600000D01*
X106287155Y-73600000D01*
X106227627Y-73606401D01*
X106227620Y-73606403D01*
X106092913Y-73656645D01*
X106092906Y-73656649D01*
X105977812Y-73742809D01*
X105977809Y-73742812D01*
X105891649Y-73857906D01*
X105891645Y-73857913D01*
X105841403Y-73992620D01*
X105841401Y-73992627D01*
X105835000Y-74052155D01*
X105835000Y-74750000D01*
X106859722Y-74750000D01*
X106815667Y-74826306D01*
X106785000Y-74940756D01*
X106785000Y-75059244D01*
X106815667Y-75173694D01*
X106859722Y-75250000D01*
X105835000Y-75250000D01*
X105835000Y-75947844D01*
X105841401Y-76007372D01*
X105841403Y-76007379D01*
X105891645Y-76142086D01*
X105891649Y-76142093D01*
X105977809Y-76257187D01*
X105977812Y-76257190D01*
X106092906Y-76343350D01*
X106092913Y-76343354D01*
X106172968Y-76373213D01*
X106228902Y-76415084D01*
X106253319Y-76480549D01*
X106238467Y-76548822D01*
X106217317Y-76577075D01*
X106166756Y-76627636D01*
X106166752Y-76627641D01*
X106037187Y-76805974D01*
X105937104Y-77002393D01*
X105937103Y-77002396D01*
X105868985Y-77212047D01*
X105834500Y-77429778D01*
X103242022Y-77429778D01*
X103579783Y-74052172D01*
X103581349Y-74036513D01*
X103723834Y-72611662D01*
X103750092Y-72546913D01*
X103807187Y-72506640D01*
X103847219Y-72500000D01*
X110611000Y-72500000D01*
X110678039Y-72519685D01*
X110723794Y-72572489D01*
X110735000Y-72624000D01*
X110735000Y-77000000D01*
X114361730Y-77000000D01*
X114428769Y-77019685D01*
X114474524Y-77072489D01*
X114484468Y-77141647D01*
X114455443Y-77205203D01*
X114400049Y-77241931D01*
X114235968Y-77295244D01*
X114053644Y-77388143D01*
X114009077Y-77420523D01*
X114009077Y-77420524D01*
X114688554Y-78100000D01*
X114682339Y-78100000D01*
X114580606Y-78127259D01*
X114489394Y-78179920D01*
X114414920Y-78254394D01*
X114362259Y-78345606D01*
X114335000Y-78447339D01*
X114335000Y-78453553D01*
X113655524Y-77774077D01*
X113655523Y-77774077D01*
X113623143Y-77818644D01*
X113530244Y-78000968D01*
X113467009Y-78195582D01*
X113435000Y-78397682D01*
X113435000Y-78602317D01*
X113467009Y-78804417D01*
X113530244Y-78999031D01*
X113623141Y-79181350D01*
X113623147Y-79181359D01*
X113655523Y-79225921D01*
X113655524Y-79225922D01*
X114335000Y-78546446D01*
X114335000Y-78552661D01*
X114362259Y-78654394D01*
X114414920Y-78745606D01*
X114489394Y-78820080D01*
X114580606Y-78872741D01*
X114682339Y-78900000D01*
X114688553Y-78900000D01*
X114009076Y-79579474D01*
X114053650Y-79611859D01*
X114235968Y-79704755D01*
X114430582Y-79767990D01*
X114632683Y-79800000D01*
X114837317Y-79800000D01*
X115039417Y-79767990D01*
X115234031Y-79704755D01*
X115416349Y-79611859D01*
X115460921Y-79579474D01*
X114781447Y-78900000D01*
X114787661Y-78900000D01*
X114889394Y-78872741D01*
X114980606Y-78820080D01*
X115055080Y-78745606D01*
X115107741Y-78654394D01*
X115135000Y-78552661D01*
X115135000Y-78546447D01*
X115814474Y-79225921D01*
X115846859Y-79181349D01*
X115939755Y-78999031D01*
X116002990Y-78804417D01*
X116035000Y-78602317D01*
X116035000Y-78397682D01*
X116002990Y-78195582D01*
X115939755Y-78000968D01*
X115846859Y-77818650D01*
X115814474Y-77774077D01*
X115814474Y-77774076D01*
X115135000Y-78453551D01*
X115135000Y-78447339D01*
X115107741Y-78345606D01*
X115055080Y-78254394D01*
X114980606Y-78179920D01*
X114889394Y-78127259D01*
X114787661Y-78100000D01*
X114781446Y-78100000D01*
X115451668Y-77429778D01*
X121834500Y-77429778D01*
X121834500Y-77650221D01*
X121868985Y-77867952D01*
X121937103Y-78077603D01*
X121937104Y-78077606D01*
X122037187Y-78274025D01*
X122166752Y-78452358D01*
X122166756Y-78452363D01*
X122322636Y-78608243D01*
X122322641Y-78608247D01*
X122478192Y-78721260D01*
X122500978Y-78737815D01*
X122629375Y-78803237D01*
X122697393Y-78837895D01*
X122697396Y-78837896D01*
X122745585Y-78853553D01*
X122907049Y-78906015D01*
X123124778Y-78940500D01*
X123124779Y-78940500D01*
X123345221Y-78940500D01*
X123345222Y-78940500D01*
X123562951Y-78906015D01*
X123772606Y-78837895D01*
X123969022Y-78737815D01*
X124147365Y-78608242D01*
X124303242Y-78452365D01*
X124303244Y-78452361D01*
X124303247Y-78452359D01*
X124399461Y-78319931D01*
X124414097Y-78299783D01*
X124432815Y-78274022D01*
X124532895Y-78077606D01*
X124601015Y-77867951D01*
X124635500Y-77650222D01*
X124635500Y-77429778D01*
X124601015Y-77212049D01*
X124532895Y-77002394D01*
X124532895Y-77002393D01*
X124498237Y-76934375D01*
X124432815Y-76805978D01*
X124405569Y-76768477D01*
X124303247Y-76627641D01*
X124303243Y-76627636D01*
X124252683Y-76577076D01*
X124219198Y-76515753D01*
X124224182Y-76446061D01*
X124266054Y-76390128D01*
X124297031Y-76373213D01*
X124377086Y-76343354D01*
X124377093Y-76343350D01*
X124492187Y-76257190D01*
X124492190Y-76257187D01*
X124578350Y-76142093D01*
X124578354Y-76142086D01*
X124628596Y-76007379D01*
X124628598Y-76007372D01*
X124634999Y-75947844D01*
X124635000Y-75947827D01*
X124635000Y-75250000D01*
X123610278Y-75250000D01*
X123654333Y-75173694D01*
X123685000Y-75059244D01*
X123685000Y-74940756D01*
X123654333Y-74826306D01*
X123610278Y-74750000D01*
X124635000Y-74750000D01*
X124635000Y-74052172D01*
X124634999Y-74052155D01*
X124628598Y-73992627D01*
X124628596Y-73992620D01*
X124578354Y-73857913D01*
X124578350Y-73857906D01*
X124492190Y-73742812D01*
X124492187Y-73742809D01*
X124377093Y-73656649D01*
X124377086Y-73656645D01*
X124242379Y-73606403D01*
X124242372Y-73606401D01*
X124182844Y-73600000D01*
X123485000Y-73600000D01*
X123485000Y-74624722D01*
X123408694Y-74580667D01*
X123294244Y-74550000D01*
X123175756Y-74550000D01*
X123061306Y-74580667D01*
X122985000Y-74624722D01*
X122985000Y-73600000D01*
X122287155Y-73600000D01*
X122227627Y-73606401D01*
X122227620Y-73606403D01*
X122092913Y-73656645D01*
X122092906Y-73656649D01*
X121977812Y-73742809D01*
X121977809Y-73742812D01*
X121891649Y-73857906D01*
X121891645Y-73857913D01*
X121841403Y-73992620D01*
X121841401Y-73992627D01*
X121835000Y-74052155D01*
X121835000Y-74750000D01*
X122859722Y-74750000D01*
X122815667Y-74826306D01*
X122785000Y-74940756D01*
X122785000Y-75059244D01*
X122815667Y-75173694D01*
X122859722Y-75250000D01*
X121835000Y-75250000D01*
X121835000Y-75947844D01*
X121841401Y-76007372D01*
X121841403Y-76007379D01*
X121891645Y-76142086D01*
X121891649Y-76142093D01*
X121977809Y-76257187D01*
X121977812Y-76257190D01*
X122092906Y-76343350D01*
X122092913Y-76343354D01*
X122172968Y-76373213D01*
X122228902Y-76415084D01*
X122253319Y-76480549D01*
X122238467Y-76548822D01*
X122217317Y-76577075D01*
X122166756Y-76627636D01*
X122166752Y-76627641D01*
X122037187Y-76805974D01*
X121937104Y-77002393D01*
X121937103Y-77002396D01*
X121868985Y-77212047D01*
X121834500Y-77429778D01*
X115451668Y-77429778D01*
X115460922Y-77420524D01*
X115460922Y-77420523D01*
X115416359Y-77388147D01*
X115416350Y-77388141D01*
X115234031Y-77295244D01*
X115069951Y-77241931D01*
X115012276Y-77202493D01*
X114985078Y-77138134D01*
X114996993Y-77069288D01*
X115044237Y-77017812D01*
X115108270Y-77000000D01*
X119235000Y-77000000D01*
X119235000Y-72624000D01*
X119254685Y-72556961D01*
X119307489Y-72511206D01*
X119359000Y-72500000D01*
X127611000Y-72500000D01*
X127678039Y-72519685D01*
X127723794Y-72572489D01*
X127735000Y-72624000D01*
X127735000Y-77000000D01*
X130361730Y-77000000D01*
X130428769Y-77019685D01*
X130474524Y-77072489D01*
X130484468Y-77141647D01*
X130455443Y-77205203D01*
X130400049Y-77241931D01*
X130235968Y-77295244D01*
X130053644Y-77388143D01*
X130009077Y-77420523D01*
X130009077Y-77420524D01*
X130688554Y-78100000D01*
X130682339Y-78100000D01*
X130580606Y-78127259D01*
X130489394Y-78179920D01*
X130414920Y-78254394D01*
X130362259Y-78345606D01*
X130335000Y-78447339D01*
X130335000Y-78453553D01*
X129655524Y-77774077D01*
X129655523Y-77774077D01*
X129623143Y-77818644D01*
X129530244Y-78000968D01*
X129467009Y-78195582D01*
X129435000Y-78397682D01*
X129435000Y-78602317D01*
X129467009Y-78804417D01*
X129530244Y-78999031D01*
X129623141Y-79181350D01*
X129623147Y-79181359D01*
X129655523Y-79225921D01*
X129655524Y-79225922D01*
X130335000Y-78546446D01*
X130335000Y-78552661D01*
X130362259Y-78654394D01*
X130414920Y-78745606D01*
X130489394Y-78820080D01*
X130580606Y-78872741D01*
X130682339Y-78900000D01*
X130688553Y-78900000D01*
X130009076Y-79579474D01*
X130053650Y-79611859D01*
X130235968Y-79704755D01*
X130430582Y-79767990D01*
X130632683Y-79800000D01*
X130837317Y-79800000D01*
X131039417Y-79767990D01*
X131234031Y-79704755D01*
X131416349Y-79611859D01*
X131460921Y-79579474D01*
X130781447Y-78900000D01*
X130787661Y-78900000D01*
X130889394Y-78872741D01*
X130980606Y-78820080D01*
X131055080Y-78745606D01*
X131107741Y-78654394D01*
X131135000Y-78552661D01*
X131135000Y-78546447D01*
X131814474Y-79225921D01*
X131846859Y-79181349D01*
X131939755Y-78999031D01*
X132002990Y-78804417D01*
X132035000Y-78602317D01*
X132035000Y-78397682D01*
X132002990Y-78195582D01*
X131939755Y-78000968D01*
X131846859Y-77818650D01*
X131814474Y-77774077D01*
X131814474Y-77774076D01*
X131135000Y-78453551D01*
X131135000Y-78447339D01*
X131107741Y-78345606D01*
X131055080Y-78254394D01*
X130980606Y-78179920D01*
X130889394Y-78127259D01*
X130787661Y-78100000D01*
X130781446Y-78100000D01*
X131451668Y-77429778D01*
X137834500Y-77429778D01*
X137834500Y-77650221D01*
X137868985Y-77867952D01*
X137937103Y-78077603D01*
X137937104Y-78077606D01*
X138037187Y-78274025D01*
X138166752Y-78452358D01*
X138166756Y-78452363D01*
X138322636Y-78608243D01*
X138322641Y-78608247D01*
X138478192Y-78721260D01*
X138500978Y-78737815D01*
X138629375Y-78803237D01*
X138697393Y-78837895D01*
X138697396Y-78837896D01*
X138745585Y-78853553D01*
X138907049Y-78906015D01*
X139124778Y-78940500D01*
X139124779Y-78940500D01*
X139345221Y-78940500D01*
X139345222Y-78940500D01*
X139562951Y-78906015D01*
X139772606Y-78837895D01*
X139969022Y-78737815D01*
X140147365Y-78608242D01*
X140303242Y-78452365D01*
X140303244Y-78452361D01*
X140303247Y-78452359D01*
X140399461Y-78319931D01*
X140414097Y-78299783D01*
X140432815Y-78274022D01*
X140532895Y-78077606D01*
X140601015Y-77867951D01*
X140635500Y-77650222D01*
X140635500Y-77429778D01*
X140601015Y-77212049D01*
X140532895Y-77002394D01*
X140532895Y-77002393D01*
X140498237Y-76934375D01*
X140432815Y-76805978D01*
X140405569Y-76768477D01*
X140303247Y-76627641D01*
X140303243Y-76627636D01*
X140252683Y-76577076D01*
X140219198Y-76515753D01*
X140224182Y-76446061D01*
X140266054Y-76390128D01*
X140297031Y-76373213D01*
X140377086Y-76343354D01*
X140377093Y-76343350D01*
X140492187Y-76257190D01*
X140492190Y-76257187D01*
X140578350Y-76142093D01*
X140578354Y-76142086D01*
X140628596Y-76007379D01*
X140628598Y-76007372D01*
X140634999Y-75947844D01*
X140635000Y-75947827D01*
X140635000Y-75250000D01*
X139610278Y-75250000D01*
X139654333Y-75173694D01*
X139685000Y-75059244D01*
X139685000Y-74940756D01*
X139654333Y-74826306D01*
X139610278Y-74750000D01*
X140635000Y-74750000D01*
X140635000Y-74052172D01*
X140634999Y-74052155D01*
X140628598Y-73992627D01*
X140628596Y-73992620D01*
X140578354Y-73857913D01*
X140578350Y-73857906D01*
X140492190Y-73742812D01*
X140492187Y-73742809D01*
X140377093Y-73656649D01*
X140377086Y-73656645D01*
X140242379Y-73606403D01*
X140242372Y-73606401D01*
X140182844Y-73600000D01*
X139485000Y-73600000D01*
X139485000Y-74624722D01*
X139408694Y-74580667D01*
X139294244Y-74550000D01*
X139175756Y-74550000D01*
X139061306Y-74580667D01*
X138985000Y-74624722D01*
X138985000Y-73600000D01*
X138287155Y-73600000D01*
X138227627Y-73606401D01*
X138227620Y-73606403D01*
X138092913Y-73656645D01*
X138092906Y-73656649D01*
X137977812Y-73742809D01*
X137977809Y-73742812D01*
X137891649Y-73857906D01*
X137891645Y-73857913D01*
X137841403Y-73992620D01*
X137841401Y-73992627D01*
X137835000Y-74052155D01*
X137835000Y-74750000D01*
X138859722Y-74750000D01*
X138815667Y-74826306D01*
X138785000Y-74940756D01*
X138785000Y-75059244D01*
X138815667Y-75173694D01*
X138859722Y-75250000D01*
X137835000Y-75250000D01*
X137835000Y-75947844D01*
X137841401Y-76007372D01*
X137841403Y-76007379D01*
X137891645Y-76142086D01*
X137891649Y-76142093D01*
X137977809Y-76257187D01*
X137977812Y-76257190D01*
X138092906Y-76343350D01*
X138092913Y-76343354D01*
X138172968Y-76373213D01*
X138228902Y-76415084D01*
X138253319Y-76480549D01*
X138238467Y-76548822D01*
X138217317Y-76577075D01*
X138166756Y-76627636D01*
X138166752Y-76627641D01*
X138037187Y-76805974D01*
X137937104Y-77002393D01*
X137937103Y-77002396D01*
X137868985Y-77212047D01*
X137834500Y-77429778D01*
X131451668Y-77429778D01*
X131460922Y-77420524D01*
X131460922Y-77420523D01*
X131416359Y-77388147D01*
X131416350Y-77388141D01*
X131234031Y-77295244D01*
X131069951Y-77241931D01*
X131012276Y-77202493D01*
X130985078Y-77138134D01*
X130996993Y-77069288D01*
X131044237Y-77017812D01*
X131108270Y-77000000D01*
X134734999Y-77000000D01*
X134735000Y-77000000D01*
X135096910Y-73742809D01*
X135222744Y-72610306D01*
X135249712Y-72545851D01*
X135307246Y-72506207D01*
X135345986Y-72500000D01*
X143611000Y-72500000D01*
X143678039Y-72519685D01*
X143723794Y-72572489D01*
X143735000Y-72624000D01*
X143735000Y-77000000D01*
X146361730Y-77000000D01*
X146428769Y-77019685D01*
X146474524Y-77072489D01*
X146484468Y-77141647D01*
X146455443Y-77205203D01*
X146400049Y-77241931D01*
X146235968Y-77295244D01*
X146053644Y-77388143D01*
X146009077Y-77420523D01*
X146009077Y-77420524D01*
X146688554Y-78100000D01*
X146682339Y-78100000D01*
X146580606Y-78127259D01*
X146489394Y-78179920D01*
X146414920Y-78254394D01*
X146362259Y-78345606D01*
X146335000Y-78447339D01*
X146335000Y-78453553D01*
X145655524Y-77774077D01*
X145655523Y-77774077D01*
X145623143Y-77818644D01*
X145530244Y-78000968D01*
X145467009Y-78195582D01*
X145435000Y-78397682D01*
X145435000Y-78602317D01*
X145467009Y-78804417D01*
X145530244Y-78999031D01*
X145623141Y-79181350D01*
X145623147Y-79181359D01*
X145655523Y-79225921D01*
X145655524Y-79225922D01*
X146335000Y-78546446D01*
X146335000Y-78552661D01*
X146362259Y-78654394D01*
X146414920Y-78745606D01*
X146489394Y-78820080D01*
X146580606Y-78872741D01*
X146682339Y-78900000D01*
X146688553Y-78900000D01*
X146009076Y-79579474D01*
X146053650Y-79611859D01*
X146235968Y-79704755D01*
X146430582Y-79767990D01*
X146632683Y-79800000D01*
X146837317Y-79800000D01*
X147039417Y-79767990D01*
X147234031Y-79704755D01*
X147416349Y-79611859D01*
X147460921Y-79579474D01*
X146781447Y-78900000D01*
X146787661Y-78900000D01*
X146889394Y-78872741D01*
X146980606Y-78820080D01*
X147055080Y-78745606D01*
X147107741Y-78654394D01*
X147135000Y-78552661D01*
X147135000Y-78546448D01*
X147814474Y-79225922D01*
X147814474Y-79225921D01*
X147846859Y-79181349D01*
X147939755Y-78999031D01*
X148002990Y-78804417D01*
X148035000Y-78602317D01*
X148035000Y-78397682D01*
X148002990Y-78195582D01*
X147939755Y-78000968D01*
X147846859Y-77818650D01*
X147814474Y-77774077D01*
X147814474Y-77774076D01*
X147135000Y-78453551D01*
X147135000Y-78447339D01*
X147107741Y-78345606D01*
X147055080Y-78254394D01*
X146980606Y-78179920D01*
X146889394Y-78127259D01*
X146787661Y-78100000D01*
X146781446Y-78100000D01*
X147460922Y-77420524D01*
X147460921Y-77420523D01*
X147416359Y-77388147D01*
X147416350Y-77388141D01*
X147234031Y-77295244D01*
X147069951Y-77241931D01*
X147012276Y-77202493D01*
X146985078Y-77138134D01*
X146996993Y-77069288D01*
X147044237Y-77017812D01*
X147108270Y-77000000D01*
X150611000Y-77000000D01*
X150678039Y-77019685D01*
X150723794Y-77072489D01*
X150735000Y-77124000D01*
X150735000Y-84375424D01*
X150715315Y-84442463D01*
X150662511Y-84488218D01*
X150610426Y-84499423D01*
X42860152Y-84000579D01*
X42793204Y-83980584D01*
X42747694Y-83927569D01*
X42736738Y-83874858D01*
X42797077Y-79530493D01*
X42804021Y-79030493D01*
X43233302Y-48122278D01*
X43253916Y-48055518D01*
X43307350Y-48010501D01*
X43357290Y-48000000D01*
X67651204Y-48000000D01*
X67718243Y-48019685D01*
X67763998Y-48072489D01*
X67768858Y-48084841D01*
X67786383Y-48137497D01*
X67786386Y-48137503D01*
X67864171Y-48258537D01*
X67864179Y-48258548D01*
X67909923Y-48311340D01*
X67909926Y-48311343D01*
X67909930Y-48311347D01*
X68018664Y-48405567D01*
X68018667Y-48405568D01*
X68018668Y-48405569D01*
X68112925Y-48448616D01*
X68149541Y-48465338D01*
X68216580Y-48485023D01*
X68216584Y-48485024D01*
X68359000Y-48505500D01*
X68359003Y-48505500D01*
X90110990Y-48505500D01*
X90111000Y-48505500D01*
X90218456Y-48493947D01*
X90269967Y-48482741D01*
X90304197Y-48471347D01*
X90372497Y-48448616D01*
X90372501Y-48448613D01*
X90372504Y-48448613D01*
X90493543Y-48370825D01*
X90546347Y-48325070D01*
X90640567Y-48216336D01*
X90700338Y-48085459D01*
X90720023Y-48018420D01*
X90720024Y-48018416D01*
X90740500Y-47876000D01*
X90740500Y-46402467D01*
X90735849Y-46350499D01*
X90734765Y-46338385D01*
X90748395Y-46269857D01*
X90796910Y-46219578D01*
X90864907Y-46203509D01*
X90914567Y-46216847D01*
X90981780Y-46251094D01*
X91183870Y-46316757D01*
X91393754Y-46350000D01*
X91606246Y-46350000D01*
X91816127Y-46316757D01*
X91816130Y-46316757D01*
X92018217Y-46251095D01*
X92207554Y-46154622D01*
X92261716Y-46115270D01*
X92261717Y-46115270D01*
X91629409Y-45482962D01*
X91692993Y-45465925D01*
X91807007Y-45400099D01*
X91900099Y-45307007D01*
X91965925Y-45192993D01*
X91982962Y-45129408D01*
X92615270Y-45761717D01*
X92615270Y-45761716D01*
X92654622Y-45707554D01*
X92751095Y-45518217D01*
X92816757Y-45316130D01*
X92816757Y-45316127D01*
X92850000Y-45106246D01*
X92850000Y-44893753D01*
X92816757Y-44683872D01*
X92816757Y-44683869D01*
X92751095Y-44481782D01*
X92654624Y-44292449D01*
X92615270Y-44238282D01*
X92615269Y-44238282D01*
X91982962Y-44870590D01*
X91965925Y-44807007D01*
X91900099Y-44692993D01*
X91807007Y-44599901D01*
X91692993Y-44534075D01*
X91629407Y-44517036D01*
X92261716Y-43884728D01*
X92207550Y-43845375D01*
X92018217Y-43748904D01*
X91816129Y-43683242D01*
X91606246Y-43650000D01*
X91393754Y-43650000D01*
X91183872Y-43683242D01*
X91183869Y-43683242D01*
X90981782Y-43748904D01*
X90911006Y-43784967D01*
X90842337Y-43797863D01*
X90777596Y-43771587D01*
X90737339Y-43714480D01*
X90731973Y-43656837D01*
X90740500Y-43597532D01*
X90740500Y-41629500D01*
X90760185Y-41562461D01*
X90812989Y-41516706D01*
X90864500Y-41505500D01*
X96111000Y-41505500D01*
X96178039Y-41525185D01*
G37*
%TD.AperFunction*%
%TD*%
M02*
