M48
; DRILL file {KiCad 9.0.7} date 2026-01-29T20:18:20-0800
; FORMAT={-:-/ absolute / metric / decimal}
; #@! TF.CreationDate,2026-01-29T20:18:20-08:00
; #@! TF.GenerationSoftware,Kicad,Pcbnew,9.0.7
; #@! TF.FileFunction,Plated,1,2,PTH
FMAT,2
METRIC
; #@! TA.AperFunction,Plated,PTH,ComponentDrill
T1C0.800
; #@! TA.AperFunction,Plated,PTH,ComponentDrill
T2C0.900
; #@! TA.AperFunction,Plated,PTH,ComponentDrill
T3C1.000
; #@! TA.AperFunction,Plated,PTH,ComponentDrill
T4C3.200
%
G90
G05
T1
X51.235Y-57.42
X51.235Y-67.58
X51.235Y-75.0
X51.235Y-78.0
X64.155Y-45.0
X67.235Y-57.42
X67.235Y-67.58
X67.235Y-75.0
X67.235Y-78.0
X74.315Y-45.0
X83.235Y-57.42
X83.235Y-67.58
X83.235Y-75.0
X83.235Y-78.0
X99.235Y-57.42
X99.235Y-67.58
X99.235Y-75.0
X99.235Y-78.0
X114.735Y-57.42
X114.735Y-67.58
X114.735Y-75.5
X114.735Y-78.5
X130.735Y-57.42
X130.735Y-67.58
X130.735Y-75.5
X130.735Y-78.5
X146.735Y-57.42
X146.735Y-67.58
X146.735Y-75.5
X146.735Y-78.5
T2
X59.735Y-75.0
X59.735Y-77.54
X75.735Y-75.0
X75.735Y-77.54
X91.735Y-75.0
X91.735Y-77.54
X107.235Y-75.0
X107.235Y-77.54
X123.235Y-75.0
X123.235Y-77.54
X139.235Y-75.0
X139.235Y-77.54
T3
X88.96Y-45.0
X91.5Y-45.0
X108.035Y-45.0
X110.575Y-45.0
X113.115Y-45.0
X115.655Y-45.0
X118.195Y-45.0
X120.735Y-45.0
X123.275Y-45.0
T4
X42.235Y-36.5
X42.235Y-86.5
X152.235Y-36.5
X152.235Y-86.5
M30
